<svg width="43" height="27" fill="none" xmlns="http://www.w3.org/2000/svg"><path fill="#fff" stroke="#000" stroke-width=".214" d="M.107.107h8.545v8.925H.107zM8.665.107h8.545v8.925H8.665zM17.228.107h8.545v8.925h-8.545zM25.785.107h8.545v8.925h-8.545zM34.347.107h8.545v8.925h-8.545zM.107 9.039h8.545v8.925H.107zM8.665 9.039h8.545v8.925H8.665zM25.785 9.039h8.545v8.925h-8.545zM34.347 9.039h8.545v8.925h-8.545zM.107 17.968h8.545v8.925H.107zM8.665 17.968h8.545v8.925H8.665zM17.228 17.968h8.545v8.925h-8.545zM25.785 17.968h8.545v8.925h-8.545zM34.347 17.968h8.545v8.925h-8.545zM17.228 9.039h8.545v8.925h-8.545z"/></svg>