<svg width="730" height="693" viewBox="0 0 730 693" fill="none"
  xmlns="http://www.w3.org/2000/svg">
  <g clip-path="url(#clip0_891_5176)">
    <g filter="url(#filter0_f_891_5176)">
      <path d="M276.18 218.872C352.694 166.501 453.861 181.23 502.142 251.769C550.424 322.309 527.536 421.947 451.022 474.318C374.508 526.689 273.341 511.96 225.059 441.421C176.778 370.881 199.665 271.243 276.18 218.872Z" fill="#FAFF00"/>
    </g>
    <g filter="url(#filter1_f_891_5176)">
      <path d="M368.45 335.197L506.929 122.085L342.88 318.343L186.341 139.61L316.578 338.033L81.3532 440.682L325.893 367.057L337.055 609.231L357.952 365.305L600.075 412.327L368.45 335.197Z" fill="#EBFF00"/>
    </g>
    <g filter="url(#filter2_f_891_5176)">
      <path d="M371.954 342.871L545.946 288.88L366.813 322.077L371.613 153.427L343.747 320.954L172.722 270.713L334.632 341.054L224.133 478.654L352.065 354.6L454.798 489.882L371.954 342.871Z" fill="white"/>
    </g>
    <g filter="url(#filter3_f_891_5176)">
      <path d="M357.017 355.799L160.751 517.27L376.319 379.577L471.715 597.176L407.332 368.728L662.557 341.742L407.198 338.246L469.539 103.968L376.102 330.256L159.406 212.45L357.017 355.799Z" fill="#EBFF00"/>
    </g>
  </g>
  <defs>
    <filter id="filter0_f_891_5176" x="12.8255" y="0.573029" width="701.55" height="692.044" filterUnits="userSpaceOnUse" color-interpolation-filters="sRGB">
      <feFlood flood-opacity="0" result="BackgroundImageFix"/>
      <feBlend mode="normal" in="SourceGraphic" in2="BackgroundImageFix" result="shape"/>
      <feGaussianBlur stdDeviation="93.4681" result="effect1_foregroundBlur_891_5176"/>
    </filter>
    <filter id="filter1_f_891_5176" x="24.5645" y="65.296" width="632.299" height="600.724" filterUnits="userSpaceOnUse" color-interpolation-filters="sRGB">
      <feFlood flood-opacity="0" result="BackgroundImageFix"/>
      <feBlend mode="normal" in="SourceGraphic" in2="BackgroundImageFix" result="shape"/>
      <feGaussianBlur stdDeviation="28.3945" result="effect1_foregroundBlur_891_5176"/>
    </filter>
    <filter id="filter2_f_891_5176" x="95.7494" y="76.4555" width="527.167" height="490.398" filterUnits="userSpaceOnUse" color-interpolation-filters="sRGB">
      <feFlood flood-opacity="0" result="BackgroundImageFix"/>
      <feBlend mode="normal" in="SourceGraphic" in2="BackgroundImageFix" result="shape"/>
      <feGaussianBlur stdDeviation="38.4856" result="effect1_foregroundBlur_891_5176"/>
    </filter>
    <filter id="filter3_f_891_5176" x="102.617" y="47.1793" width="616.728" height="606.786" filterUnits="userSpaceOnUse" color-interpolation-filters="sRGB">
      <feFlood flood-opacity="0" result="BackgroundImageFix"/>
      <feBlend mode="normal" in="SourceGraphic" in2="BackgroundImageFix" result="shape"/>
      <feGaussianBlur stdDeviation="28.3945" result="effect1_foregroundBlur_891_5176"/>
    </filter>
    <clipPath id="clip0_891_5176">
      <rect width="729.638" height="693" fill="white"/>
    </clipPath>
  </defs>
</svg>
