<svg width="500" height="500" viewBox="0 0 500 500" fill="none" xmlns="http://www.w3.org/2000/svg">
<g clip-path="url(#clip0_652_4508)">
<g filter="url(#filter0_d_652_4508)">
<g filter="url(#filter1_f_652_4508)">
<path d="M284.662 375.85C210.835 398.21 134.276 361.161 113.662 293.098C93.0484 225.036 136.186 151.735 210.014 129.375C283.841 107.016 360.4 144.065 381.014 212.127C401.627 280.189 358.489 353.491 284.662 375.85Z" fill="#E9ED2D"/>
</g>
<g filter="url(#filter2_f_652_4508)">
<path d="M217.871 245.991L54.5896 380.329L233.929 265.773L313.296 446.803L259.73 256.747L472.063 234.293L259.618 231.388L311.48 36.4801L233.747 224.74L53.4672 126.735L217.871 245.991Z" fill="#E8FC00"/>
</g>
<g filter="url(#filter3_f_652_4508)">
<path d="M239.692 222.919L88.1332 222.112L238.555 240.703L192.452 373.281L256.571 247.379L379.636 330.124L268.842 233.72L391.003 152.282L258.41 218.604L210.845 85.5271L239.692 222.919Z" fill="white"/>
</g>
<g filter="url(#filter4_f_652_4508)">
<path d="M237.578 261.689L74.2966 396.026L253.636 281.47L333.003 462.501L279.437 272.445L491.77 249.99L279.325 247.086L331.187 52.1778L253.454 240.438L73.1743 142.433L237.578 261.689Z" fill="#E8FC00"/>
</g>
</g>
<path d="M142.861 280.124L237.967 257.362L140.649 238.052L142.861 280.124Z" fill="#DC580D"/>
<path d="M166.062 246.5L234.855 257.41L165.922 271.104L144.335 261.603L166.062 246.5Z" fill="#F27E1E"/>
<path d="M149.789 251.405L235.471 257.646L149.537 267.309L145.973 261.029L149.789 251.405Z" fill="#F2581E"/>
<path fill-rule="evenodd" clip-rule="evenodd" d="M165.65 246.86C166.352 247.786 162.132 258.044 162.142 259.197C162.152 260.349 166.557 270.528 165.873 271.467C165.189 272.405 153.904 271.658 152.787 272.025C151.669 272.391 143.122 279.637 141.998 279.291C140.874 278.945 138.12 268.225 137.418 267.299C136.717 266.373 127.03 260.672 127.02 259.52C127.009 258.367 136.592 252.489 137.276 251.55C137.96 250.612 140.52 239.842 141.638 239.476C142.756 239.11 151.432 246.197 152.556 246.543C153.68 246.889 164.949 245.934 165.65 246.86Z" fill="#DC580D" stroke="#DC580D" stroke-width="2.52069" stroke-linecap="round" stroke-linejoin="round"/>
<path fill-rule="evenodd" clip-rule="evenodd" d="M163.369 246.88C164.056 247.806 159.931 258.071 159.941 259.224C159.952 260.377 164.263 270.565 163.594 271.504C162.925 272.443 151.888 271.692 150.795 272.058C149.701 272.424 141.345 279.673 140.245 279.326C139.145 278.98 136.449 268.251 135.762 267.325C135.076 266.398 125.6 260.69 125.59 259.537C125.579 258.384 134.949 252.504 135.619 251.566C136.288 250.627 138.788 239.851 139.881 239.484C140.975 239.118 149.462 246.213 150.562 246.559C151.662 246.905 162.683 245.953 163.369 246.88Z" fill="#FFFF00" stroke="#FFFF00" stroke-width="2.49373" stroke-linecap="round" stroke-linejoin="round"/>
<path d="M164.661 271.871C164.538 272.162 164.222 272.473 163.86 272.658C163.307 272.941 162.811 272.973 157.119 273.087L150.976 273.21L147.979 275.503C143.815 278.688 142.812 279.406 141.725 279.975C140.635 280.545 140.226 280.588 139.569 280.198C138.731 279.701 138.105 278.185 136.062 271.701C135.49 269.889 134.919 268.251 134.792 268.062C134.664 267.873 133.511 267.002 132.228 266.126C125.814 261.749 124.484 260.615 124.471 259.509C124.457 258.434 125.675 257.358 132.079 252.787L134.695 250.919L135.416 248.509C137.67 240.975 138.142 239.679 138.949 238.797C139.25 238.468 139.489 238.363 139.954 238.358C141.007 238.344 142.378 239.198 148.218 243.501C150.494 245.179 150.826 245.374 151.4 245.373C151.752 245.373 154.454 245.358 157.403 245.34C162.246 245.31 162.83 245.334 163.435 245.588C164.554 246.057 164.805 246.94 164.358 248.836C164.234 249.362 163.444 251.914 162.602 254.507L161.072 259.22L162.728 263.986C164.301 268.51 164.863 270.379 164.863 271.079C164.863 271.25 164.772 271.606 164.661 271.871V271.871Z" fill="url(#paint0_linear_652_4508)"/>
<g opacity="0.571865" filter="url(#filter5_f_652_4508)">
<path d="M164.621 272.073C164.433 273.141 163.751 271.457 163.537 270.401C163.437 269.941 162.578 267.285 161.629 264.5L159.903 259.436L161.566 254.242C162.48 251.386 163.273 248.716 163.327 248.31C163.622 246.09 164.641 245.534 164.464 247.812C164.361 248.953 163.795 250.857 162.701 254.253L161.019 259.471L162.562 263.969C163.945 268.004 164.539 269.808 164.706 270.812C164.808 271.421 164.753 271.735 164.621 272.073V272.073Z" fill="#FFFF00"/>
</g>
<g opacity="0.651376" filter="url(#filter6_f_652_4508)">
<path d="M163.389 259.394C163.343 259.388 162.848 259.379 162.29 259.373C161.732 259.367 161.266 259.357 161.255 259.35C161.227 259.334 161.206 259.21 161.221 259.15L161.232 259.103L162.33 259.075C162.935 259.059 163.433 259.05 163.437 259.055C163.442 259.059 163.439 259.088 163.431 259.12C163.418 259.171 163.429 259.263 163.463 259.368C163.473 259.399 163.465 259.402 163.389 259.394V259.394Z" fill="#BA2300"/>
</g>
<path d="M163.405 258.884C163.329 258.844 163.188 258.842 162.233 258.864C162.066 258.868 161.906 258.881 161.877 258.893C161.848 258.905 161.812 258.906 161.797 258.895C161.782 258.884 161.743 258.894 161.71 258.917C161.677 258.939 161.631 258.954 161.607 258.95C161.576 258.944 161.58 258.92 161.624 258.85C161.721 258.697 161.903 258.222 161.876 258.19C161.87 258.182 161.884 258.139 161.91 258.094C161.935 258.05 161.95 258.006 161.945 257.998C161.939 257.99 161.946 257.982 161.961 257.98C161.976 257.978 161.977 257.969 161.964 257.959C161.951 257.95 161.963 257.904 161.992 257.858C162.021 257.812 162.039 257.759 162.031 257.74C162.023 257.721 162.04 257.669 162.069 257.622C162.098 257.576 162.116 257.525 162.109 257.508C162.102 257.491 162.12 257.438 162.148 257.39C162.177 257.343 162.19 257.297 162.178 257.288C162.166 257.279 162.179 257.234 162.208 257.188C162.237 257.141 162.255 257.089 162.247 257.071C162.24 257.053 162.254 257.008 162.279 256.972C162.304 256.936 162.318 256.89 162.31 256.871C162.302 256.852 162.319 256.798 162.348 256.752C162.377 256.706 162.394 256.653 162.386 256.635C162.378 256.616 162.391 256.568 162.414 256.527C162.437 256.486 162.451 256.44 162.444 256.425C162.438 256.41 162.443 256.397 162.454 256.396C162.466 256.395 162.474 256.384 162.472 256.372C162.47 256.36 162.487 256.316 162.511 256.275C162.534 256.233 162.547 256.192 162.54 256.183C162.532 256.174 162.545 256.126 162.568 256.076C162.591 256.026 162.601 255.981 162.59 255.977C162.58 255.972 162.601 255.914 162.638 255.847C162.674 255.78 162.696 255.719 162.687 255.712C162.677 255.705 162.692 255.661 162.72 255.614C162.748 255.567 162.763 255.522 162.752 255.514C162.741 255.506 162.791 255.346 162.863 255.159C162.936 254.971 162.986 254.812 162.976 254.804C162.965 254.796 162.976 254.759 163.001 254.723C163.026 254.686 163.038 254.649 163.027 254.641C163.016 254.634 163.034 254.581 163.066 254.525C163.099 254.469 163.119 254.408 163.111 254.389C163.103 254.37 163.121 254.317 163.149 254.271C163.178 254.225 163.195 254.172 163.188 254.153C163.18 254.134 163.191 254.097 163.212 254.071C163.233 254.045 163.244 254.008 163.236 253.989C163.228 253.97 163.248 253.908 163.281 253.852C163.313 253.796 163.335 253.737 163.328 253.72C163.321 253.704 163.339 253.652 163.368 253.604C163.396 253.556 163.41 253.51 163.397 253.501C163.385 253.493 163.399 253.447 163.428 253.401C163.457 253.355 163.474 253.302 163.467 253.285C163.459 253.267 163.474 253.222 163.498 253.186C163.523 253.149 163.537 253.104 163.529 253.084C163.521 253.065 163.538 253.012 163.567 252.966C163.596 252.92 163.613 252.867 163.606 252.849C163.598 252.831 163.613 252.787 163.638 252.75C163.662 252.714 163.676 252.668 163.668 252.648C163.66 252.628 163.673 252.582 163.698 252.546C163.723 252.51 163.733 252.473 163.721 252.465C163.709 252.456 163.723 252.411 163.751 252.364C163.779 252.317 163.793 252.272 163.782 252.263C163.771 252.255 163.782 252.219 163.808 252.182C163.833 252.145 163.847 252.099 163.839 252.081C163.832 252.062 163.846 252.017 163.87 251.981C163.895 251.944 163.909 251.9 163.902 251.882C163.895 251.864 163.912 251.811 163.941 251.765C163.97 251.719 163.984 251.674 163.971 251.665C163.958 251.656 163.965 251.625 163.986 251.596C164.006 251.567 164.018 251.53 164.011 251.515C164.005 251.499 164.02 251.457 164.045 251.42C164.07 251.384 164.083 251.338 164.075 251.319C164.067 251.299 164.079 251.256 164.1 251.221C164.122 251.187 164.137 251.151 164.132 251.141C164.128 251.131 164.137 251.089 164.151 251.047L164.204 250.894C164.219 250.852 164.225 250.811 164.217 250.802C164.21 250.794 164.224 250.757 164.249 250.72C164.274 250.684 164.288 250.639 164.28 250.621C164.272 250.603 164.284 250.566 164.305 250.54C164.327 250.513 164.335 250.485 164.323 250.477C164.311 250.468 164.322 250.431 164.346 250.395C164.371 250.359 164.384 250.312 164.376 250.292C164.368 250.272 164.372 250.251 164.386 250.245C164.4 250.239 164.411 250.202 164.41 250.163C164.408 250.124 164.419 250.086 164.433 250.081C164.447 250.075 164.452 250.054 164.443 250.034C164.435 250.014 164.446 249.976 164.467 249.95C164.489 249.924 164.496 249.895 164.484 249.886C164.471 249.876 164.478 249.847 164.5 249.821C164.522 249.794 164.529 249.765 164.517 249.756C164.504 249.746 164.512 249.717 164.533 249.691C164.555 249.664 164.562 249.634 164.549 249.625C164.535 249.615 164.539 249.593 164.557 249.576C164.575 249.559 164.583 249.53 164.575 249.511C164.568 249.493 164.58 249.456 164.602 249.429C164.624 249.402 164.633 249.376 164.622 249.371C164.61 249.367 164.617 249.338 164.637 249.307C164.656 249.277 164.663 249.245 164.651 249.236C164.639 249.228 164.644 249.207 164.662 249.19C164.68 249.173 164.683 249.151 164.669 249.141C164.654 249.131 164.657 249.108 164.675 249.091C164.693 249.074 164.698 249.054 164.687 249.045C164.675 249.037 164.681 249.005 164.701 248.975C164.72 248.944 164.726 248.915 164.713 248.909C164.7 248.904 164.703 248.894 164.719 248.888C164.735 248.881 164.741 248.859 164.732 248.839C164.724 248.818 164.728 248.797 164.742 248.791C164.755 248.786 164.76 248.764 164.751 248.744C164.743 248.723 164.747 248.702 164.76 248.696C164.774 248.691 164.778 248.669 164.77 248.649C164.761 248.628 164.766 248.607 164.779 248.602C164.793 248.596 164.797 248.575 164.789 248.554C164.78 248.534 164.785 248.512 164.799 248.506C164.814 248.5 164.814 248.487 164.8 248.477C164.786 248.466 164.789 248.444 164.807 248.427C164.825 248.41 164.83 248.39 164.819 248.382C164.808 248.374 164.813 248.353 164.831 248.336C164.849 248.319 164.852 248.297 164.838 248.287C164.824 248.277 164.825 248.263 164.84 248.257C164.855 248.251 164.856 248.238 164.843 248.228C164.829 248.218 164.831 248.179 164.847 248.142C164.862 248.104 164.866 248.069 164.854 248.065C164.843 248.06 164.848 248.051 164.864 248.044C164.881 248.037 164.884 248.023 164.871 248.014C164.859 248.005 164.855 247.99 164.863 247.981C164.883 247.96 164.911 247.551 164.894 247.53C164.887 247.521 164.892 247.509 164.907 247.503C164.921 247.497 164.922 247.484 164.907 247.474C164.893 247.464 164.894 247.45 164.91 247.444C164.925 247.438 164.926 247.424 164.912 247.414C164.898 247.404 164.899 247.391 164.914 247.384C164.929 247.378 164.931 247.365 164.918 247.356C164.905 247.346 164.902 247.327 164.912 247.314C164.922 247.3 164.915 247.273 164.898 247.255C164.874 247.23 164.877 247.222 164.907 247.227C164.937 247.232 164.94 247.225 164.916 247.2C164.899 247.181 164.892 247.155 164.902 247.141C164.912 247.127 164.909 247.109 164.896 247.099C164.883 247.09 164.884 247.077 164.898 247.071C164.912 247.066 164.911 247.048 164.896 247.032C164.88 247.016 164.877 246.99 164.888 246.975C164.899 246.96 164.897 246.939 164.883 246.929C164.869 246.919 164.864 246.891 164.872 246.867C164.879 246.842 164.872 246.808 164.855 246.791C164.839 246.773 164.834 246.747 164.844 246.733C164.854 246.718 164.852 246.695 164.839 246.681C164.825 246.667 164.802 246.598 164.788 246.528C164.771 246.452 164.749 246.399 164.732 246.397C164.716 246.394 164.701 246.368 164.699 246.338C164.696 246.306 164.683 246.289 164.665 246.297C164.649 246.303 164.636 246.289 164.635 246.266C164.634 246.242 164.622 246.227 164.608 246.233C164.594 246.239 164.585 246.23 164.588 246.212C164.591 246.195 164.581 246.186 164.565 246.193C164.55 246.199 164.54 246.192 164.542 246.176C164.545 246.161 164.526 246.149 164.502 246.15C164.477 246.15 164.459 246.137 164.462 246.119C164.465 246.102 164.447 246.088 164.422 246.089C164.397 246.09 164.294 246.017 164.193 245.928C163.756 245.541 163.218 245.377 162.034 245.27C161.81 245.25 161.64 245.227 161.656 245.221C161.69 245.206 162.24 245.207 163.002 245.223C163.669 245.236 164.611 245.301 165.004 245.36C166.024 245.513 166.602 245.858 166.854 246.461C167.229 247.361 166.827 249.083 165.036 254.248C164.021 257.175 163.799 257.832 163.602 258.483C163.536 258.702 163.475 258.888 163.468 258.895C163.46 258.903 163.431 258.898 163.404 258.884L163.405 258.884Z" fill="#CB3D07"/>
<path d="M372.429 278.991L324.499 264.852L285.679 250.849L333.169 242.538L377.027 236.313L372.429 278.991Z" fill="#DC580D"/>
<path d="M350.112 243.031L280.979 251.531L349.392 267.625L371.298 258.884L350.112 243.031Z" fill="#F27E1E"/>
<path d="M366.203 248.503L280.356 251.746L365.899 264.406L369.68 258.255L366.203 248.503Z" fill="#F2581E"/>
<path fill-rule="evenodd" clip-rule="evenodd" d="M351.199 243.388C350.429 244.258 353.851 254.81 353.752 255.958C353.654 257.106 348.482 266.918 349.093 267.906C349.703 268.894 361.011 269.013 362.098 269.464C363.185 269.915 371.151 277.794 372.298 277.536C373.446 277.277 377.013 266.799 377.783 265.929C378.553 265.06 388.648 260.117 388.747 258.969C388.845 257.821 379.742 251.226 379.131 250.238C378.52 249.25 376.793 238.316 375.707 237.865C374.62 237.414 365.427 243.817 364.279 244.075C363.132 244.334 351.969 242.519 351.199 243.388Z" fill="#DC580D" stroke="#DC580D" stroke-width="2.52069" stroke-linecap="round" stroke-linejoin="round"/>
<path fill-rule="evenodd" clip-rule="evenodd" d="M353.473 243.583C352.718 244.454 356.044 255.005 355.945 256.153C355.847 257.302 350.768 267.13 351.363 268.117C351.959 269.105 363.02 269.201 364.082 269.65C365.145 270.099 372.922 277.966 374.045 277.705C375.168 277.444 378.678 266.954 379.433 266.082C380.188 265.211 390.074 260.246 390.172 259.097C390.271 257.948 381.379 251.368 380.783 250.38C380.188 249.393 378.52 238.457 377.458 238.008C376.396 237.559 367.39 243.983 366.267 244.244C365.144 244.505 354.228 242.712 353.473 243.583Z" fill="#FFFF00" stroke="#FFFF00" stroke-width="2.49373" stroke-linecap="round" stroke-linejoin="round"/>
<path d="M350.271 268.401C350.371 268.701 350.663 269.035 351.009 269.248C351.539 269.573 352.031 269.642 357.697 270.192L363.813 270.785L366.626 273.301C370.533 276.795 371.479 277.588 372.519 278.238C373.562 278.891 373.967 278.964 374.652 278.626C375.525 278.195 376.265 276.731 378.799 270.423C379.508 268.659 380.203 267.07 380.344 266.891C380.486 266.713 381.703 265.933 383.049 265.158C389.78 261.285 391.192 260.256 391.29 259.154C391.386 258.083 390.254 256.917 384.219 251.869L381.753 249.806L381.219 247.348C379.548 239.664 379.178 238.335 378.441 237.395C378.166 237.043 377.935 236.92 377.472 236.879C376.423 236.785 374.991 237.531 368.839 241.374C366.44 242.873 366.095 243.042 365.523 242.997C365.171 242.97 362.479 242.748 359.54 242.504C354.714 242.103 354.129 242.083 353.507 242.289C352.355 242.672 352.037 243.533 352.337 245.457C352.42 245.992 353.013 248.597 353.653 251.246L354.819 256.062L352.802 260.688C350.888 265.079 350.184 266.899 350.13 267.596C350.117 267.767 350.181 268.129 350.271 268.401V268.401Z" fill="url(#paint1_linear_652_4508)"/>
<g opacity="0.571865" filter="url(#filter7_f_652_4508)">
<path d="M350.295 268.606C350.402 269.686 351.21 268.058 351.505 267.022C351.64 266.571 352.699 263.989 353.859 261.284L355.968 256.367L354.708 251.061C354.015 248.143 353.429 245.421 353.406 245.012C353.281 242.776 352.309 242.143 352.31 244.428C352.326 245.573 352.744 247.515 353.575 250.985L354.852 256.317L352.97 260.683C351.281 264.601 350.551 266.354 350.307 267.342C350.159 267.941 350.191 268.259 350.295 268.606V268.606Z" fill="#FFFF00"/>
</g>
<g opacity="0.651376" filter="url(#filter8_f_652_4508)">
<path d="M352.494 256.058C352.541 256.056 353.035 256.085 353.592 256.122C354.149 256.159 354.614 256.184 354.626 256.178C354.655 256.164 354.685 256.042 354.676 255.981L354.668 255.933L353.575 255.821C352.973 255.759 352.477 255.712 352.473 255.716C352.468 255.72 352.468 255.75 352.474 255.782C352.483 255.834 352.464 255.925 352.423 256.027C352.411 256.057 352.419 256.061 352.494 256.058V256.058Z" fill="#BA2300"/>
</g>
<path d="M352.519 255.548C352.597 255.514 352.738 255.522 353.688 255.618C353.855 255.634 354.014 255.66 354.042 255.674C354.07 255.688 354.106 255.692 354.121 255.682C354.137 255.673 354.175 255.685 354.207 255.71C354.238 255.735 354.282 255.754 354.306 255.752C354.338 255.748 354.336 255.724 354.297 255.65C354.212 255.49 354.067 255.003 354.096 254.974C354.103 254.966 354.092 254.922 354.07 254.875C354.049 254.829 354.036 254.784 354.043 254.777C354.049 254.769 354.042 254.76 354.028 254.757C354.013 254.754 354.012 254.745 354.026 254.737C354.04 254.728 354.031 254.681 354.006 254.633C353.981 254.585 353.967 254.531 353.976 254.513C353.985 254.495 353.972 254.441 353.947 254.392C353.922 254.344 353.908 254.292 353.916 254.275C353.925 254.259 353.911 254.205 353.886 254.155C353.861 254.105 353.851 254.058 353.864 254.051C353.877 254.043 353.867 253.997 353.842 253.948C353.816 253.9 353.803 253.846 353.812 253.829C353.821 253.812 353.81 253.766 353.788 253.728C353.766 253.69 353.756 253.643 353.765 253.625C353.774 253.606 353.761 253.552 353.736 253.503C353.711 253.455 353.698 253.401 353.707 253.383C353.716 253.365 353.707 253.316 353.687 253.273C353.668 253.231 353.657 253.184 353.665 253.17C353.672 253.155 353.669 253.142 353.657 253.14C353.646 253.138 353.639 253.127 353.641 253.115C353.644 253.103 353.63 253.058 353.61 253.015C353.59 252.972 353.58 252.929 353.588 252.921C353.596 252.913 353.587 252.864 353.568 252.812C353.549 252.76 353.543 252.715 353.554 252.712C353.565 252.708 353.548 252.648 353.516 252.578C353.485 252.509 353.468 252.447 353.478 252.44C353.488 252.434 353.477 252.389 353.452 252.34C353.427 252.291 353.417 252.245 353.428 252.238C353.44 252.231 353.402 252.068 353.344 251.875C353.286 251.683 353.248 251.52 353.259 251.513C353.271 251.506 353.262 251.468 353.24 251.43C353.218 251.391 353.209 251.354 353.221 251.347C353.232 251.34 353.218 251.286 353.19 251.228C353.162 251.17 353.147 251.107 353.156 251.089C353.165 251.071 353.152 251.016 353.127 250.968C353.102 250.92 353.089 250.866 353.098 250.847C353.107 250.829 353.099 250.792 353.08 250.764C353.061 250.737 353.053 250.699 353.062 250.68C353.072 250.662 353.056 250.599 353.028 250.54C353 250.482 352.983 250.421 352.991 250.405C352.999 250.39 352.985 250.336 352.96 250.286C352.936 250.237 352.926 250.19 352.939 250.182C352.952 250.174 352.941 250.128 352.916 250.08C352.891 250.031 352.877 249.978 352.886 249.96C352.895 249.943 352.884 249.897 352.862 249.859C352.84 249.821 352.83 249.775 352.839 249.756C352.849 249.737 352.836 249.683 352.81 249.635C352.785 249.587 352.772 249.533 352.781 249.516C352.789 249.498 352.779 249.453 352.757 249.415C352.735 249.376 352.725 249.33 352.734 249.31C352.744 249.291 352.734 249.244 352.712 249.206C352.69 249.168 352.683 249.131 352.695 249.123C352.707 249.116 352.698 249.069 352.673 249.02C352.648 248.971 352.638 248.925 352.65 248.918C352.661 248.911 352.653 248.873 352.631 248.835C352.608 248.796 352.598 248.749 352.607 248.732C352.616 248.714 352.605 248.668 352.583 248.629C352.561 248.591 352.551 248.546 352.559 248.528C352.568 248.511 352.555 248.457 352.529 248.409C352.504 248.361 352.494 248.315 352.507 248.307C352.52 248.298 352.516 248.267 352.498 248.237C352.48 248.206 352.471 248.169 352.479 248.154C352.486 248.139 352.474 248.095 352.452 248.057C352.43 248.019 352.42 247.972 352.43 247.954C352.439 247.935 352.431 247.89 352.412 247.855C352.393 247.819 352.382 247.782 352.386 247.772C352.391 247.763 352.386 247.72 352.375 247.677L352.334 247.52C352.322 247.477 352.32 247.436 352.328 247.428C352.336 247.42 352.325 247.382 352.303 247.344C352.281 247.306 352.27 247.26 352.279 247.242C352.288 247.224 352.28 247.187 352.26 247.159C352.241 247.131 352.235 247.103 352.248 247.095C352.26 247.087 352.252 247.05 352.23 247.012C352.208 246.974 352.199 246.927 352.208 246.907C352.218 246.888 352.215 246.866 352.202 246.859C352.188 246.853 352.181 246.815 352.185 246.776C352.189 246.736 352.181 246.699 352.168 246.692C352.155 246.685 352.151 246.664 352.161 246.644C352.171 246.625 352.163 246.587 352.144 246.559C352.124 246.531 352.119 246.502 352.133 246.493C352.146 246.485 352.141 246.456 352.121 246.427C352.101 246.399 352.096 246.369 352.109 246.361C352.123 246.353 352.117 246.323 352.098 246.295C352.078 246.267 352.073 246.237 352.088 246.228C352.102 246.22 352.1 246.197 352.083 246.179C352.067 246.161 352.061 246.131 352.07 246.113C352.079 246.095 352.07 246.057 352.05 246.029C352.03 246 352.023 245.974 352.034 245.97C352.046 245.966 352.041 245.937 352.024 245.905C352.007 245.873 352.003 245.841 352.015 245.833C352.028 245.826 352.024 245.805 352.008 245.787C351.991 245.768 351.99 245.746 352.005 245.737C352.02 245.728 352.019 245.705 352.002 245.687C351.986 245.669 351.982 245.648 351.994 245.64C352.007 245.633 352.003 245.6 351.986 245.568C351.969 245.537 351.965 245.507 351.978 245.503C351.992 245.498 351.99 245.488 351.974 245.481C351.959 245.473 351.955 245.45 351.965 245.431C351.975 245.411 351.972 245.389 351.959 245.383C351.946 245.376 351.943 245.354 351.953 245.335C351.963 245.315 351.961 245.293 351.947 245.287C351.934 245.28 351.932 245.258 351.942 245.238C351.952 245.219 351.949 245.197 351.936 245.19C351.923 245.184 351.92 245.162 351.93 245.142C351.94 245.123 351.937 245.101 351.923 245.094C351.909 245.087 351.91 245.073 351.925 245.064C351.94 245.055 351.939 245.033 351.922 245.015C351.906 244.996 351.902 244.976 351.913 244.968C351.925 244.961 351.921 244.94 351.905 244.922C351.888 244.904 351.887 244.882 351.902 244.872C351.917 244.863 351.917 244.85 351.902 244.842C351.887 244.835 351.887 244.822 351.901 244.813C351.916 244.804 351.917 244.765 351.904 244.727C351.891 244.688 351.891 244.653 351.902 244.649C351.914 244.646 351.91 244.636 351.894 244.628C351.878 244.619 351.876 244.606 351.889 244.598C351.903 244.589 351.907 244.575 351.9 244.565C351.881 244.543 351.885 244.133 351.904 244.114C351.912 244.105 351.907 244.093 351.893 244.086C351.879 244.079 351.88 244.065 351.895 244.056C351.909 244.047 351.909 244.034 351.895 244.026C351.88 244.019 351.88 244.005 351.895 243.996C351.91 243.987 351.91 243.974 351.895 243.966C351.88 243.959 351.88 243.946 351.893 243.938C351.907 243.929 351.911 243.911 351.902 243.896C351.894 243.882 351.902 243.856 351.921 243.838C351.947 243.816 351.945 243.808 351.914 243.811C351.883 243.813 351.881 243.806 351.907 243.783C351.926 243.765 351.934 243.739 351.925 243.725C351.917 243.711 351.921 243.692 351.934 243.684C351.948 243.675 351.949 243.663 351.935 243.656C351.921 243.649 351.924 243.631 351.94 243.616C351.957 243.602 351.962 243.576 351.952 243.56C351.942 243.544 351.946 243.524 351.961 243.515C351.975 243.506 351.982 243.479 351.977 243.454C351.971 243.429 351.981 243.395 351.999 243.379C352.017 243.363 352.024 243.337 352.015 243.322C352.005 243.307 352.01 243.284 352.024 243.271C352.038 243.258 352.066 243.191 352.087 243.123C352.108 243.048 352.135 242.997 352.152 242.996C352.168 242.994 352.185 242.969 352.189 242.94C352.195 242.908 352.209 242.893 352.226 242.901C352.242 242.909 352.256 242.896 352.259 242.872C352.261 242.849 352.274 242.835 352.288 242.842C352.301 242.849 352.311 242.84 352.31 242.823C352.308 242.806 352.319 242.798 352.334 242.805C352.349 242.813 352.36 242.806 352.358 242.791C352.357 242.775 352.376 242.765 352.4 242.767C352.425 242.77 352.444 242.757 352.442 242.74C352.441 242.722 352.46 242.71 352.484 242.713C352.509 242.715 352.617 242.651 352.725 242.569C353.191 242.217 353.739 242.095 354.928 242.079C355.153 242.076 355.325 242.067 355.309 242.059C355.277 242.041 354.728 242 353.967 241.958C353.301 241.92 352.356 241.913 351.96 241.941C350.932 242.016 350.329 242.315 350.032 242.897C349.589 243.766 349.858 245.514 351.248 250.801C352.035 253.797 352.207 254.469 352.353 255.133C352.402 255.357 352.448 255.546 352.455 255.555C352.463 255.563 352.492 255.56 352.519 255.548L352.519 255.548Z" fill="#CB3D07"/>
<path d="M155.324 211.21L265.172 271.876L195.057 171.767L155.324 211.21Z" fill="#DC580D"/>
<path d="M208.842 202.822L271.931 276.479L185.175 227.614L189.947 212.995L208.842 202.822Z" fill="#F27E1E"/>
<path d="M202.262 208.154L272.293 277.14L190.248 221.825L191.8 213.71L202.262 208.154Z" fill="#F2581E"/>
<path fill-rule="evenodd" clip-rule="evenodd" d="M208.64 204.684C208.341 206.187 194.516 211.012 193.388 212.032C192.26 213.052 186.072 226.321 184.546 226.468C183.02 226.615 173.869 214.822 172.527 214.039C171.186 213.257 156.544 211.171 155.9 209.758C155.256 208.345 163.425 196.232 163.724 194.729C164.023 193.225 161.162 178.667 162.29 177.647C163.418 176.627 177.618 180.934 179.144 180.787C180.67 180.64 193.543 173.729 194.885 174.511C196.226 175.293 196.833 190.068 197.477 191.481C198.121 192.894 208.939 203.18 208.64 204.684Z" fill="#DC580D" stroke="#DC580D" stroke-width="3.3272" stroke-linecap="round" stroke-linejoin="round"/>
<path d="M194.526 213.209C194.508 213.092 192.196 210.491 192.859 211.021L192.61 210.822L192.85 210.732C193.239 210.587 193.969 210.277 194.45 210.053C194.517 210.021 194.721 209.932 194.903 209.853C195.084 209.775 194.969 209.249 195.048 209.214C195.127 209.18 195.272 209.12 195.37 209.083C195.468 209.046 196.265 209.436 196.409 209.363C196.553 209.291 196.742 209.203 196.828 209.169C197.014 209.095 197.593 208.845 197.768 208.764C197.836 208.732 198.021 208.648 198.179 208.577C198.446 208.457 198.7 208.344 199.908 207.815C200.157 207.706 200.481 207.561 200.628 207.494C201.146 207.257 201.515 207.097 201.72 207.02C201.835 206.977 202.185 206.811 202.499 206.651C202.813 206.491 203.567 206.118 204.175 205.823C205.445 205.205 205.483 205.053 206.48 204.35C207.186 203.852 207.615 203.708 207.711 203.349C207.737 203.256 208.358 203.019 208.342 202.828C208.326 202.637 208.318 202.378 208.324 202.251C208.339 201.941 207.983 201.007 207.7 200.61C207.251 199.983 207.445 200.076 208.027 200.768C209.507 202.526 210.266 203.811 210.276 204.574C210.298 206.298 208.903 207.168 200.552 210.639C198.553 211.471 196.463 212.355 195.909 212.604C194.767 213.119 194.544 213.329 194.526 213.209Z" fill="#CB3D07"/>
<path fill-rule="evenodd" clip-rule="evenodd" d="M206.621 202.45C206.308 203.939 192.561 208.863 191.432 209.884C190.304 210.905 184.026 224.088 182.513 224.25C180.999 224.413 172.068 212.861 170.749 212.102C169.429 211.344 154.951 209.448 154.329 208.059C153.707 206.67 161.934 194.606 162.247 193.117C162.56 191.627 159.89 177.272 161.019 176.251C162.148 175.23 176.163 179.327 177.677 179.164C179.19 179.002 192.018 172.026 193.337 172.784C194.657 173.543 195.092 188.138 195.714 189.527C196.336 190.916 206.934 200.96 206.621 202.45Z" fill="#FFFF00" stroke="#FFFF00" stroke-width="3.2916" stroke-linecap="round" stroke-linejoin="round"/>
<path d="M183.087 225.623C182.693 225.758 182.108 225.718 181.609 225.523C180.844 225.225 180.379 224.764 175.278 219.245L169.773 213.289L164.883 212.34C158.09 211.022 156.503 210.661 154.988 210.086C153.47 209.511 153.07 209.144 152.878 208.154C152.635 206.892 153.583 204.945 158.192 197.246C159.48 195.094 160.596 193.094 160.671 192.803C160.746 192.512 160.595 190.61 160.335 188.576C159.035 178.409 158.989 176.103 160.068 175.121C161.118 174.165 163.247 174.424 173.371 176.739L177.508 177.685L180.519 176.285C189.93 171.907 191.623 171.237 193.2 171.26C193.789 171.269 194.103 171.414 194.515 171.867C195.451 172.895 195.81 174.996 196.68 184.532C197.019 188.249 197.117 188.747 197.621 189.313C197.93 189.661 200.312 192.314 202.915 195.209C207.188 199.963 207.677 200.56 207.956 201.38C208.473 202.896 207.822 203.918 205.56 205.138C204.931 205.478 201.719 206.934 198.423 208.375L192.43 210.994L189.176 216.807C186.089 222.323 184.737 224.516 184.046 225.129C183.878 225.279 183.446 225.502 183.087 225.623V225.623Z" fill="url(#paint2_linear_652_4508)"/>
<g opacity="0.571865" filter="url(#filter9_f_652_4508)">
<path d="M182.851 225.761C181.631 226.511 182.697 224.362 183.551 223.225C183.918 222.723 185.786 219.549 187.704 216.171L191.19 210.029L197.773 207.119C201.394 205.518 204.724 203.961 205.172 203.658C207.622 202.005 209.064 202.522 206.66 204.345C205.444 205.242 203.069 206.353 198.758 208.249L192.133 211.162L189.045 216.626C186.275 221.527 185.014 223.695 184.17 224.74C183.658 225.374 183.3 225.594 182.851 225.761V225.761Z" fill="#FFFF00"/>
</g>
<g opacity="0.651376" filter="url(#filter10_f_652_4508)">
<path d="M194.287 213.435C194.252 213.385 193.827 212.888 193.344 212.332C192.861 211.776 192.463 211.307 192.459 211.29C192.452 211.248 192.555 211.119 192.627 211.081L192.683 211.051L193.674 212.11C194.219 212.693 194.664 213.177 194.664 213.185C194.663 213.194 194.632 213.216 194.593 213.236C194.531 213.268 194.451 213.36 194.377 213.485C194.354 213.522 194.345 213.517 194.287 213.435V213.435Z" fill="#BA2300"/>
</g>
<path d="M353.793 212.861L247.854 270.782L313.279 174.314L353.793 212.861Z" fill="#DC580D"/>
<path d="M303.134 202.28L239.306 275.296L326.551 227.309L321.926 212.643L303.134 202.28Z" fill="#F27E1E"/>
<path d="M309.661 207.679L238.939 275.956L321.537 221.471L320.067 213.34L309.661 207.679Z" fill="#F2581E"/>
<path fill-rule="evenodd" clip-rule="evenodd" d="M300.425 204.89C300.693 206.399 314.414 211.51 315.521 212.553C316.628 213.596 322.539 226.99 324.062 227.169C325.585 227.347 334.978 215.747 336.336 214.992C337.693 214.238 352.375 212.456 353.048 211.057C353.721 209.658 345.806 197.378 345.538 195.869C345.27 194.359 348.433 179.864 347.326 178.821C346.219 177.777 331.933 181.789 330.41 181.61C328.887 181.432 316.16 174.255 314.803 175.009C313.446 175.763 312.532 190.522 311.859 191.921C311.186 193.321 300.157 203.38 300.425 204.89Z" fill="#DC580D" stroke="#DC580D" stroke-width="3.3272" stroke-linecap="round" stroke-linejoin="round"/>
<path d="M314.361 213.706C314.381 213.589 316.748 211.037 316.073 211.553L316.327 211.359L316.089 211.264C315.702 211.111 314.979 210.786 314.503 210.552C314.436 210.519 314.234 210.425 314.054 210.343C313.875 210.261 314.001 209.737 313.922 209.701C313.844 209.665 313.7 209.603 313.603 209.563C313.505 209.524 312.7 209.897 312.558 209.822C312.416 209.746 312.229 209.655 312.143 209.618C311.959 209.541 311.386 209.28 311.212 209.194C311.145 209.161 310.962 209.073 310.805 208.999C310.541 208.873 310.289 208.756 309.092 208.201C308.845 208.087 308.524 207.936 308.379 207.865C307.866 207.618 307.501 207.45 307.297 207.369C307.183 207.324 306.837 207.15 306.526 206.984C306.215 206.817 305.469 206.429 304.868 206.121C303.611 205.477 303.576 205.324 302.594 204.601C301.898 204.088 301.473 203.935 301.383 203.574C301.36 203.481 300.743 203.231 300.764 203.04C300.784 202.85 300.797 202.591 300.794 202.464C300.785 202.153 301.16 201.227 301.452 200.837C301.914 200.218 301.717 200.308 301.121 200.987C299.605 202.714 298.82 203.983 298.794 204.746C298.736 206.469 300.113 207.368 308.389 211.012C310.372 211.884 312.442 212.812 312.991 213.073C314.123 213.611 314.341 213.825 314.361 213.706Z" fill="#CB3D07"/>
<path fill-rule="evenodd" clip-rule="evenodd" d="M302.492 202.698C302.774 204.194 316.415 209.402 317.523 210.446C318.63 211.49 324.633 224.801 326.143 224.994C327.652 225.188 336.821 213.824 338.156 213.093C339.491 212.362 354.005 210.767 354.656 209.391C355.307 208.015 347.332 195.783 347.05 194.288C346.767 192.792 349.735 178.495 348.627 177.451C347.52 176.407 333.423 180.212 331.913 180.018C330.403 179.825 317.723 172.584 316.388 173.315C315.053 174.046 314.315 188.629 313.664 190.004C313.014 191.38 302.209 201.203 302.492 202.698Z" fill="#FFFF00" stroke="#FFFF00" stroke-width="3.2916" stroke-linecap="round" stroke-linejoin="round"/>
<path d="M325.541 226.356C325.933 226.498 326.518 226.47 327.021 226.286C327.793 226.004 328.267 225.552 333.481 220.141L339.109 214.3L344.018 213.453C350.836 212.276 352.431 211.948 353.957 211.405C355.486 210.861 355.894 210.502 356.106 209.516C356.376 208.26 355.468 206.293 351.02 198.501C349.777 196.322 348.702 194.3 348.633 194.007C348.564 193.715 348.755 191.816 349.057 189.788C350.568 179.65 350.662 177.346 349.603 176.341C348.573 175.364 346.44 175.579 336.27 177.683L332.114 178.543L329.133 177.081C319.814 172.509 318.136 171.803 316.559 171.794C315.97 171.791 315.653 171.929 315.231 172.374C314.274 173.382 313.872 175.475 312.804 184.99C312.388 188.7 312.279 189.196 311.764 189.752C311.448 190.093 309.011 192.696 306.349 195.536C301.978 200.2 301.477 200.788 301.181 201.602C300.632 203.107 301.262 204.142 303.499 205.409C304.12 205.761 307.301 207.283 310.567 208.792L316.505 211.536L319.637 217.414C322.609 222.994 323.915 225.214 324.593 225.842C324.758 225.995 325.185 226.226 325.541 226.356V226.356Z" fill="url(#paint3_linear_652_4508)"/>
<g opacity="0.571865" filter="url(#filter11_f_652_4508)">
<path d="M325.771 226.498C326.975 227.273 325.954 225.103 325.124 223.948C324.767 223.438 322.965 220.226 321.118 216.809L317.76 210.596L311.238 207.55C307.651 205.875 304.355 204.249 303.913 203.937C301.498 202.233 300.046 202.72 302.411 204.592C303.609 205.514 305.96 206.674 310.231 208.659L316.793 211.709L319.768 217.236C322.436 222.194 323.651 224.387 324.473 225.449C324.972 226.094 325.326 226.322 325.771 226.498V226.498Z" fill="#FFFF00"/>
</g>
<g opacity="0.651376" filter="url(#filter12_f_652_4508)">
<path d="M314.595 213.938C314.632 213.888 315.066 213.401 315.561 212.855C316.056 212.309 316.463 211.848 316.467 211.831C316.476 211.789 316.375 211.658 316.304 211.618L316.248 211.587L315.236 212.626C314.679 213.197 314.224 213.672 314.224 213.68C314.224 213.688 314.255 213.712 314.293 213.732C314.355 213.765 314.433 213.859 314.505 213.985C314.526 214.023 314.536 214.018 314.595 213.938V213.938Z" fill="#BA2300"/>
</g>
<path d="M295.869 142.165L272.712 250.918L258.106 278.995L242.383 250.123L214.702 143.849L295.869 142.165Z" fill="#DC580D"/>
<path d="M280.72 189.935L270.239 249.24L258.525 274.802L243.683 250.279L227.891 185.443L255.387 181.648L280.72 189.935Z" fill="#F27E1E"/>
<path d="M268.365 187.892L263.608 250.825L260.585 277.217L259.001 276.276L250.804 251.948L242.242 188.434L255.991 183.806L268.365 187.892Z" fill="#F2581E"/>
<path fill-rule="evenodd" clip-rule="evenodd" d="M278.793 190.084C277.012 191.419 257.395 183.241 255.187 183.25C252.98 183.26 233.436 191.607 231.644 190.287C229.852 188.967 231.386 167.354 230.694 165.209C230.002 163.063 216.197 146.623 216.869 144.472C217.542 142.321 238.108 137.142 239.888 135.806C241.668 134.471 252.679 115.963 254.887 115.953C257.095 115.944 268.271 134.356 270.063 135.676C271.855 136.996 292.466 141.998 293.158 144.143C293.85 146.288 280.191 162.847 279.519 164.998C278.846 167.149 280.573 188.749 278.793 190.084Z" fill="#DC580D" stroke="#DC580D" stroke-width="4.82968" stroke-linecap="round" stroke-linejoin="round"/>
<path fill-rule="evenodd" clip-rule="evenodd" d="M278.774 185.711C276.992 187.017 257.362 179.021 255.153 179.031C252.944 179.04 233.386 187.208 231.593 185.918C229.8 184.627 231.338 163.487 230.647 161.389C229.955 159.291 216.143 143.214 216.816 141.11C217.49 139.006 238.07 133.937 239.852 132.63C241.633 131.324 252.655 113.22 254.865 113.21C257.074 113.2 268.255 131.207 270.047 132.498C271.84 133.789 292.465 138.677 293.157 140.775C293.848 142.873 280.178 159.071 279.504 161.175C278.831 163.279 280.555 184.404 278.774 185.711Z" fill="#FFFF00" stroke="#FFFF00" stroke-width="4.77801" stroke-linecap="round" stroke-linejoin="round"/>
<path d="M233.823 192.561C236.037 192.123 240.131 190.765 248.354 187.742C248.412 187.72 248.47 187.699 248.528 187.678C251.079 186.739 253.457 185.891 253.813 185.793L254.459 185.614L254.424 184.084C254.404 183.242 254.452 181.919 254.482 181.747L254.58 181.447L254.088 181.703C253.647 181.932 241.973 185.942 239.572 186.689C239.04 186.854 238.449 187.045 238.259 187.113C238.069 187.181 237.789 187.264 237.637 187.299C237.485 187.334 236.831 187.499 236.184 187.665C234.572 188.081 234.569 188.195 232.912 188.423C231.816 188.573 230.621 188.619 230.001 187.973C229.312 187.256 228.697 185.929 228.462 184.657L228.265 183.585L228.351 185.455C228.601 190.907 229.42 192.548 231.967 192.705C232.441 192.734 233.276 192.669 233.823 192.561L233.823 192.561Z" fill="#CB3D07"/>
<path d="M230.881 187.959C230.325 187.722 229.731 187.113 229.38 186.418C228.842 185.355 228.786 184.406 228.619 173.498L228.439 161.727L224.073 155.963C218.008 147.958 216.642 146.029 215.561 143.941C214.478 141.847 214.401 141.063 215.153 139.807C216.112 138.207 219.024 137.021 231.464 133.165C234.943 132.087 238.086 131.006 238.449 130.764C238.813 130.523 240.492 128.32 242.181 125.87C250.627 113.62 252.811 111.083 254.93 111.067C256.99 111.051 259.04 113.394 267.741 125.705L271.296 130.735L275.907 132.139C290.321 136.526 292.801 137.441 294.482 138.994C295.11 139.575 295.309 140.035 295.316 140.925C295.331 142.942 293.684 145.561 285.386 156.711C282.151 161.058 281.775 161.691 281.77 162.791C281.767 163.467 281.772 168.642 281.78 174.293C281.794 183.572 281.742 184.691 281.25 185.848C280.341 187.988 278.647 188.461 275.019 187.589C274.011 187.346 269.128 185.809 264.169 184.172L255.153 181.197L246.005 184.328C237.322 187.299 233.737 188.36 232.396 188.354C232.069 188.352 231.387 188.174 230.881 187.959Z" fill="url(#paint4_linear_652_4508)"/>
<g opacity="0.571865" filter="url(#filter13_f_652_4508)">
<path d="M230.496 187.877C228.451 187.505 231.685 186.215 233.71 185.814C234.593 185.627 239.688 184.006 245.033 182.212L254.752 178.951L264.688 182.184C270.153 183.962 275.26 185.505 276.038 185.612C280.288 186.198 281.345 188.154 276.981 187.795C274.797 187.587 271.154 186.487 264.658 184.359L254.674 181.09L246.042 184.004C238.299 186.618 234.836 187.739 232.912 188.051C231.744 188.24 231.143 188.131 230.496 187.877V187.877Z" fill="#FFFF00"/>
</g>
<g opacity="0.651376" filter="url(#filter14_f_652_4508)">
<path d="M254.227 185.402C254.25 185.324 254.306 184.487 254.351 183.544C254.396 182.6 254.456 181.812 254.484 181.792C254.552 181.746 255.055 181.709 255.298 181.733L255.49 181.751L255.563 183.609C255.603 184.63 255.621 185.472 255.603 185.48C255.585 185.487 255.465 185.483 255.337 185.469C255.13 185.448 254.757 185.469 254.329 185.526C254.201 185.543 254.19 185.53 254.227 185.402V185.402Z" fill="#420E02"/>
</g>
<path d="M276.524 192.438C274.304 192.034 270.189 190.739 261.921 187.841C261.863 187.821 261.805 187.801 261.747 187.78C259.181 186.88 256.79 186.068 256.433 185.976L255.784 185.808L255.796 184.277C255.803 183.435 255.735 182.112 255.702 181.941L255.6 181.643L256.096 181.891C256.54 182.113 268.274 185.944 270.686 186.654C271.221 186.812 271.814 186.993 272.005 187.058C272.196 187.123 272.478 187.202 272.63 187.235C272.783 187.267 273.439 187.422 274.088 187.579C275.706 187.969 275.711 188.084 277.372 188.286C278.47 188.42 279.666 188.447 280.276 187.792C280.953 187.064 281.549 185.728 281.763 184.453L281.945 183.378L281.887 185.249C281.72 190.704 280.926 192.358 278.382 192.553C277.909 192.589 277.073 192.537 276.524 192.438L276.524 192.438Z" fill="#CB3D07"/>
<path d="M329.473 298.074L250.303 258.64L302.673 327.038L329.473 298.074Z" fill="#DC580D"/>
<path d="M292.035 305.581L245.404 255.6L307.96 287.414L305.036 297.852L292.035 305.581Z" fill="#F27E1E"/>
<path d="M296.51 301.63L245.131 255.145L304.562 291.643L303.711 297.404L296.51 301.63Z" fill="#F2581E"/>
<path fill-rule="evenodd" clip-rule="evenodd" d="M292.121 304.265C292.286 303.197 301.877 299.386 302.641 298.634C303.405 297.882 307.365 288.353 308.435 288.204C309.506 288.054 316.303 296.085 317.271 296.596C318.239 297.107 328.612 298.138 329.108 299.113C329.603 300.089 324.213 308.863 324.048 309.931C323.882 310.999 326.333 321.165 325.569 321.917C324.805 322.669 314.677 320.061 313.606 320.21C312.536 320.359 303.677 325.611 302.709 325.101C301.742 324.59 300.872 314.204 300.376 313.228C299.88 312.252 291.955 305.332 292.121 304.265Z" fill="#DC580D" stroke="#DC580D" stroke-width="2.34511" stroke-linecap="round" stroke-linejoin="round"/>
<path d="M301.806 297.839C301.822 297.92 303.528 299.683 303.045 299.329L303.227 299.462L303.06 299.533C302.791 299.647 302.286 299.887 301.954 300.059C301.907 300.083 301.767 300.152 301.641 300.213C301.516 300.274 301.613 300.641 301.558 300.667C301.503 300.694 301.403 300.74 301.335 300.769C301.267 300.799 300.694 300.548 300.595 300.603C300.496 300.659 300.365 300.726 300.306 300.753C300.177 300.81 299.777 301.003 299.656 301.066C299.609 301.09 299.481 301.155 299.372 301.21C299.188 301.303 299.012 301.389 298.177 301.798C298.005 301.883 297.781 301.994 297.68 302.046C297.322 302.228 297.067 302.352 296.925 302.412C296.846 302.446 296.604 302.573 296.387 302.695C296.171 302.817 295.651 303.102 295.232 303.329C294.356 303.802 294.334 303.91 293.653 304.435C293.17 304.807 292.873 304.921 292.816 305.176C292.801 305.243 292.37 305.429 292.387 305.562C292.404 305.696 292.418 305.879 292.417 305.968C292.416 306.187 292.694 306.834 292.906 307.105C293.241 307.533 293.101 307.473 292.671 307.004C291.576 305.81 291.003 304.927 290.973 304.39C290.906 303.177 291.863 302.523 297.639 299.828C299.022 299.183 300.467 298.498 300.85 298.306C301.639 297.909 301.79 297.755 301.806 297.839Z" fill="#CB3D07"/>
<path fill-rule="evenodd" clip-rule="evenodd" d="M293.609 305.777C293.785 304.719 303.318 300.84 304.083 300.087C304.847 299.335 308.873 289.863 309.934 289.704C310.995 289.544 317.63 297.412 318.582 297.906C319.534 298.401 329.786 299.303 330.265 300.263C330.745 301.222 325.313 309.963 325.137 311.022C324.961 312.08 327.27 322.109 326.506 322.862C325.742 323.614 315.749 321.149 314.689 321.308C313.628 321.468 304.803 326.764 303.851 326.27C302.899 325.775 302.156 315.51 301.677 314.551C301.197 313.591 293.433 306.835 293.609 305.777Z" fill="#F1F10E" stroke="#FFFF00" stroke-width="2.32003" stroke-linecap="round" stroke-linejoin="round"/>
<path d="M309.49 288.754C309.764 288.648 310.176 288.658 310.534 288.78C311.082 288.968 311.423 289.278 315.18 293.012L319.235 297.042L322.707 297.563C327.529 298.288 328.658 298.495 329.742 298.855C330.828 299.215 331.121 299.461 331.286 300.152C331.495 301.034 330.885 302.433 327.87 307.992C327.027 309.547 326.301 310.988 326.257 311.196C326.213 311.403 326.376 312.738 326.62 314.162C327.84 321.283 327.941 322.905 327.211 323.629C326.5 324.334 324.993 324.215 317.795 322.888L314.853 322.345L312.775 323.422C306.278 326.786 305.106 327.309 303.995 327.339C303.58 327.351 303.355 327.258 303.051 326.951C302.361 326.255 302.045 324.786 301.147 318.098C300.797 315.49 300.713 315.142 300.342 314.759C300.114 314.523 298.357 312.726 296.437 310.765C293.286 307.545 292.924 307.139 292.703 306.57C292.293 305.518 292.721 304.779 294.278 303.852C294.71 303.594 296.928 302.473 299.207 301.359L303.349 299.335L305.466 295.145C307.475 291.168 308.361 289.584 308.829 289.131C308.944 289.02 309.241 288.851 309.49 288.754V288.754Z" fill="url(#paint5_linear_652_4508)"/>
<g opacity="0.571865" filter="url(#filter15_f_652_4508)">
<path d="M309.652 288.65C310.488 288.086 309.802 289.631 309.235 290.457C308.991 290.822 307.771 293.113 306.521 295.549L304.25 299.978L299.701 302.224C297.199 303.46 294.901 304.656 294.595 304.883C292.919 306.12 291.888 305.799 293.526 304.444C294.356 303.776 295.995 302.922 298.974 301.458L303.552 299.209L305.563 295.269C307.367 291.734 308.19 290.17 308.753 289.409C309.095 288.947 309.341 288.781 309.652 288.65V288.65Z" fill="#FFEC00"/>
</g>
<g opacity="0.651376" filter="url(#filter16_f_652_4508)">
<path d="M301.968 297.672C301.994 297.707 302.308 298.043 302.665 298.42C303.022 298.798 303.316 299.116 303.319 299.128C303.326 299.157 303.257 299.251 303.207 299.28L303.168 299.303L302.439 298.587C302.038 298.192 301.71 297.865 301.71 297.859C301.71 297.853 301.732 297.836 301.758 297.821C301.801 297.797 301.854 297.73 301.903 297.64C301.918 297.613 301.925 297.616 301.968 297.672V297.672Z" fill="#BA2300"/>
</g>
<path d="M189.662 302.848L262.531 258.891L219.345 328.781L189.662 302.848Z" fill="#DC580D"/>
<path d="M225.651 308.784L268.414 255.457L208.412 291.859L212.108 302.049L225.651 308.784Z" fill="#F27E1E"/>
<path d="M220.894 305.177L268.653 254.981L212.118 295.82L213.397 301.502L220.894 305.177Z" fill="#F2581E"/>
<path fill-rule="evenodd" clip-rule="evenodd" d="M227.482 306.866C227.248 305.811 217.432 302.623 216.622 301.921C215.811 301.22 211.248 291.964 210.17 291.884C209.092 291.804 202.824 300.254 201.891 300.826C200.958 301.398 190.672 303.092 190.24 304.097C189.808 305.103 195.75 313.513 195.983 314.568C196.217 315.623 194.424 325.925 195.234 326.627C196.045 327.328 205.985 324.076 207.063 324.156C208.14 324.237 217.317 328.91 218.251 328.338C219.184 327.766 219.386 317.346 219.818 316.34C220.25 315.335 227.715 307.921 227.482 306.866Z" fill="#DC580D" stroke="#DC580D" stroke-width="2.34511" stroke-linecap="round" stroke-linejoin="round"/>
<path d="M217.404 301.074C217.393 301.156 215.803 303.025 216.263 302.641L216.09 302.785L216.26 302.845C216.537 302.941 217.056 303.148 217.398 303.299C217.446 303.32 217.591 303.38 217.72 303.433C217.849 303.485 217.776 303.858 217.833 303.881C217.889 303.904 217.992 303.943 218.062 303.968C218.131 303.993 218.687 303.706 218.79 303.755C218.892 303.804 219.026 303.863 219.088 303.886C219.22 303.935 219.632 304.102 219.756 304.157C219.804 304.178 219.936 304.234 220.049 304.282C220.239 304.363 220.42 304.438 221.279 304.793C221.456 304.866 221.687 304.963 221.791 305.008C222.159 305.167 222.422 305.274 222.568 305.325C222.649 305.353 222.899 305.465 223.122 305.573C223.346 305.681 223.883 305.932 224.316 306.131C225.22 306.547 225.25 306.654 225.963 307.133C226.468 307.474 226.772 307.569 226.846 307.82C226.865 307.885 227.307 308.043 227.298 308.178C227.29 308.312 227.288 308.495 227.294 308.584C227.309 308.803 227.073 309.466 226.88 309.75C226.573 310.199 226.708 310.13 227.108 309.634C228.124 308.373 228.639 307.455 228.634 306.917C228.624 305.703 227.627 305.111 221.69 302.792C220.268 302.237 218.782 301.646 218.388 301.479C217.575 301.133 217.415 300.989 217.404 301.074Z" fill="#CB3D07"/>
<path fill-rule="evenodd" clip-rule="evenodd" d="M226.093 308.471C225.85 307.426 216.088 304.167 215.276 303.465C214.465 302.763 209.84 293.569 208.771 293.478C207.702 293.386 201.586 301.663 200.667 302.218C199.749 302.772 189.576 304.33 189.159 305.319C188.742 306.307 194.724 314.682 194.967 315.727C195.211 316.771 193.549 326.928 194.36 327.63C195.171 328.332 204.984 325.231 206.053 325.322C207.122 325.413 216.268 330.133 217.186 329.578C218.105 329.024 218.188 318.732 218.605 317.744C219.022 316.756 226.337 309.515 226.093 308.471Z" fill="#F1F10E" stroke="#FFFF00" stroke-width="2.32003" stroke-linecap="round" stroke-linejoin="round"/>
<path d="M209.153 292.5C208.873 292.412 208.462 292.449 208.113 292.594C207.578 292.815 207.257 293.148 203.747 297.114L199.959 301.396L196.528 302.139C191.762 303.172 190.649 303.451 189.59 303.879C188.529 304.308 188.253 304.572 188.133 305.273C187.981 306.166 188.679 307.524 192.044 312.878C192.985 314.375 193.802 315.767 193.859 315.971C193.917 316.175 193.839 317.518 193.687 318.955C192.926 326.139 192.929 327.765 193.705 328.44C194.459 329.098 195.956 328.883 203.054 327.096L205.955 326.367L208.098 327.307C214.797 330.248 216 330.694 217.111 330.654C217.526 330.638 217.744 330.532 218.028 330.206C218.672 329.467 218.893 327.981 219.36 321.249C219.542 318.624 219.604 318.272 219.95 317.865C220.162 317.615 221.8 315.709 223.59 313.629C226.529 310.214 226.864 309.785 227.048 309.203C227.389 308.127 226.915 307.417 225.302 306.592C224.854 306.362 222.568 305.385 220.223 304.42L215.96 302.666L213.578 298.62C211.318 294.78 210.332 293.256 209.836 292.834C209.715 292.731 209.407 292.581 209.153 292.5V292.5Z" fill="url(#paint6_linear_652_4508)"/>
<g opacity="0.571865" filter="url(#filter17_f_652_4508)">
<path d="M208.987 292.408C208.116 291.898 208.899 293.396 209.519 294.184C209.785 294.532 211.15 296.74 212.553 299.091L215.104 303.366L219.787 305.316C222.364 306.388 224.733 307.435 225.054 307.641C226.806 308.768 227.814 308.382 226.092 307.135C225.221 306.521 223.531 305.775 220.464 304.505L215.751 302.553L213.491 298.75C211.464 295.338 210.543 293.83 209.932 293.107C209.561 292.668 209.306 292.518 208.987 292.408V292.408Z" fill="#FFEC00"/>
</g>
<g opacity="0.651376" filter="url(#filter18_f_652_4508)">
<path d="M217.232 300.918C217.208 300.954 216.917 301.31 216.585 301.71C216.253 302.109 215.979 302.446 215.977 302.458C215.973 302.487 216.047 302.576 216.099 302.603L216.139 302.623L216.821 301.861C217.196 301.442 217.502 301.094 217.502 301.088C217.501 301.083 217.479 301.067 217.451 301.054C217.407 301.032 217.349 300.969 217.295 300.882C217.279 300.856 217.272 300.86 217.232 300.918V300.918Z" fill="#BA2300"/>
</g>
<path d="M232.564 350.9L245.618 273.623L255.064 253.415L266.999 273.276L289.671 347.286L232.564 350.9Z" fill="#DC580D"/>
<path d="M241.802 316.807L247.409 274.731L254.893 256.38L266.079 273.205L279.139 318.389L259.89 321.885L241.802 316.807Z" fill="#F27E1E"/>
<path d="M250.565 317.876L252.032 273.417L253.372 254.741L254.515 255.357L261.015 272.243L268.945 316.713L259.401 320.383L250.565 317.876Z" fill="#F2581E"/>
<path fill-rule="evenodd" clip-rule="evenodd" d="M243.157 316.645C244.37 315.652 258.43 320.824 259.984 320.751C261.539 320.679 275.052 314.216 276.353 315.091C277.654 315.967 277.221 331.233 277.772 332.723C278.323 334.213 288.537 345.377 288.128 346.912C287.718 348.447 273.391 352.71 272.177 353.703C270.964 354.697 263.763 368.06 262.209 368.133C260.655 368.205 252.233 355.574 250.932 354.698C249.631 353.822 234.967 350.916 234.415 349.426C233.864 347.936 242.987 335.867 243.396 334.332C243.805 332.797 241.943 317.639 243.157 316.645Z" fill="#DC580D" stroke="#DC580D" stroke-width="3.40411" stroke-linecap="round" stroke-linejoin="round"/>
<path fill-rule="evenodd" clip-rule="evenodd" d="M243.302 319.724C244.517 318.751 258.579 323.795 260.135 323.722C261.69 323.649 275.219 317.312 276.52 318.167C277.821 319.022 277.37 333.955 277.92 335.412C278.47 336.868 288.678 347.777 288.266 349.279C287.855 350.78 273.514 354.966 272.298 355.939C271.083 356.912 263.863 369.991 262.307 370.064C260.752 370.137 252.34 357.791 251.039 356.936C249.737 356.08 235.068 353.255 234.518 351.798C233.968 350.342 243.11 338.526 243.521 337.024C243.932 335.522 242.086 320.698 243.302 319.724Z" fill="#F1F10E" stroke="#FFFF00" stroke-width="3.3677" stroke-linecap="round" stroke-linejoin="round"/>
<path d="M274.751 313.556C273.205 313.93 270.362 315.009 264.663 317.384C264.623 317.401 264.582 317.417 264.542 317.434C262.774 318.172 261.124 318.84 260.877 318.92L260.427 319.065L260.498 320.141C260.537 320.733 260.542 321.667 260.527 321.788L260.467 322.003L260.806 321.808C261.109 321.634 269.21 318.46 270.878 317.863C271.248 317.73 271.658 317.578 271.79 317.525C271.922 317.471 272.117 317.404 272.223 317.375C272.329 317.346 272.784 317.21 273.235 317.074C274.357 316.733 274.356 316.652 275.517 316.442C276.284 316.303 277.124 316.235 277.58 316.672C278.086 317.156 278.559 318.072 278.762 318.961L278.934 319.71L278.817 318.396C278.477 314.564 277.852 313.433 276.053 313.399C275.719 313.392 275.133 313.463 274.751 313.556L274.751 313.556Z" fill="#CB3D07"/>
<path d="M276.96 316.709C277.359 316.859 277.795 317.27 278.063 317.748C278.474 318.481 278.542 319.148 278.986 326.824L279.465 335.108L282.712 339.036C287.222 344.492 288.242 345.81 289.065 347.248C289.891 348.689 289.969 349.24 289.476 350.146C288.849 351.302 286.834 352.224 278.189 355.312C275.771 356.175 273.59 357.03 273.342 357.211C273.093 357.392 271.977 358.994 270.861 360.769C265.28 369.649 263.817 371.5 262.326 371.575C260.875 371.648 259.361 370.06 252.866 361.65L250.213 358.214L246.923 357.364C236.642 354.706 234.868 354.135 233.637 353.092C233.178 352.702 233.024 352.384 232.993 351.758C232.921 350.337 234.003 348.444 239.513 340.344C241.661 337.186 241.907 336.729 241.877 335.954C241.859 335.478 241.701 331.834 241.526 327.855C241.239 321.321 241.242 320.531 241.553 319.702C242.13 318.168 243.309 317.784 245.89 318.29C246.607 318.43 250.091 319.367 253.632 320.371L260.071 322.196L266.419 319.718C272.444 317.366 274.937 316.512 275.881 316.476C276.112 316.467 276.598 316.572 276.96 316.709Z" fill="url(#paint7_linear_652_4508)"/>
<g opacity="0.571865" filter="url(#filter19_f_652_4508)">
<path d="M277.234 316.755C278.685 316.955 276.447 317.96 275.032 318.304C274.416 318.462 270.877 319.756 267.166 321.179L260.42 323.766L253.326 321.787C249.425 320.698 245.782 319.765 245.231 319.712C242.221 319.426 241.418 318.081 244.502 318.203C246.046 318.285 248.644 318.95 253.283 320.254L260.411 322.258L266.402 319.947C271.777 317.875 274.182 316.982 275.528 316.704C276.344 316.536 276.771 316.595 277.234 316.755V316.755Z" fill="#FFEC00"/>
</g>
<g opacity="0.651376" filter="url(#filter20_f_652_4508)">
<path d="M260.597 319.207C260.583 319.263 260.569 319.854 260.565 320.52C260.562 321.186 260.543 321.742 260.524 321.757C260.478 321.792 260.125 321.833 259.953 321.823L259.817 321.816L259.71 320.51C259.651 319.792 259.613 319.2 259.626 319.194C259.638 319.188 259.723 319.187 259.813 319.193C259.96 319.202 260.222 319.176 260.522 319.123C260.611 319.107 260.62 319.116 260.597 319.207V319.207Z" fill="#420E02"/>
</g>
<path d="M244.683 314.919C246.258 315.137 249.195 315.926 255.104 317.719C255.145 317.732 255.187 317.744 255.229 317.757C257.062 318.314 258.77 318.814 259.024 318.868L259.486 318.968L259.524 320.046C259.544 320.639 259.632 321.568 259.66 321.688L259.741 321.895L259.384 321.735C259.064 321.592 250.687 319.245 248.967 318.817C248.586 318.722 248.162 318.612 248.026 318.572C247.889 318.532 247.689 318.485 247.581 318.467C247.472 318.448 247.005 318.359 246.544 318.268C245.392 318.041 245.386 317.961 244.21 317.868C243.433 317.807 242.59 317.823 242.18 318.303C241.725 318.836 241.345 319.794 241.232 320.699L241.137 321.461L241.121 320.142C241.076 316.296 241.585 315.107 243.371 314.893C243.703 314.854 244.294 314.865 244.683 314.919L244.683 314.919Z" fill="#CB3D07"/>
</g>
<defs>
<filter id="filter0_d_652_4508" x="-150.677" y="-118" width="769.786" height="864.497" filterUnits="userSpaceOnUse" color-interpolation-filters="sRGB">
<feFlood flood-opacity="0" result="BackgroundImageFix"/>
<feColorMatrix in="SourceAlpha" type="matrix" values="0 0 0 0 0 0 0 0 0 0 0 0 0 0 0 0 0 0 127 0" result="hardAlpha"/>
<feOffset dy="1.67724"/>
<feGaussianBlur stdDeviation="0.83862"/>
<feComposite in2="hardAlpha" operator="out"/>
<feColorMatrix type="matrix" values="0 0 0 0 0 0 0 0 0 0 0 0 0 0 0 0 0 0 0.25 0"/>
<feBlend mode="normal" in2="BackgroundImageFix" result="effect1_dropShadow_652_4508"/>
<feBlend mode="normal" in="SourceGraphic" in2="effect1_dropShadow_652_4508" result="shape"/>
</filter>
<filter id="filter1_f_652_4508" x="-47.0073" y="-32.6606" width="588.69" height="570.547" filterUnits="userSpaceOnUse" color-interpolation-filters="sRGB">
<feFlood flood-opacity="0" result="BackgroundImageFix"/>
<feBlend mode="normal" in="SourceGraphic" in2="BackgroundImageFix" result="shape"/>
<feGaussianBlur stdDeviation="77.7605" result="effect1_foregroundBlur_652_4508"/>
</filter>
<filter id="filter2_f_652_4508" x="6.22139" y="-10.7649" width="513.087" height="504.813" filterUnits="userSpaceOnUse" color-interpolation-filters="sRGB">
<feFlood flood-opacity="0" result="BackgroundImageFix"/>
<feBlend mode="normal" in="SourceGraphic" in2="BackgroundImageFix" result="shape"/>
<feGaussianBlur stdDeviation="23.6227" result="effect1_foregroundBlur_652_4508"/>
</filter>
<filter id="filter3_f_652_4508" x="24.0968" y="21.4913" width="430.943" height="415.826" filterUnits="userSpaceOnUse" color-interpolation-filters="sRGB">
<feFlood flood-opacity="0" result="BackgroundImageFix"/>
<feBlend mode="normal" in="SourceGraphic" in2="BackgroundImageFix" result="shape"/>
<feGaussianBlur stdDeviation="32.018" result="effect1_foregroundBlur_652_4508"/>
</filter>
<filter id="filter4_f_652_4508" x="25.9284" y="4.93233" width="513.087" height="504.814" filterUnits="userSpaceOnUse" color-interpolation-filters="sRGB">
<feFlood flood-opacity="0" result="BackgroundImageFix"/>
<feBlend mode="normal" in="SourceGraphic" in2="BackgroundImageFix" result="shape"/>
<feGaussianBlur stdDeviation="23.6227" result="effect1_foregroundBlur_652_4508"/>
</filter>
<filter id="filter5_f_652_4508" x="159.349" y="245.798" width="5.96451" height="27.1701" filterUnits="userSpaceOnUse" color-interpolation-filters="sRGB">
<feFlood flood-opacity="0" result="BackgroundImageFix"/>
<feBlend mode="normal" in="SourceGraphic" in2="BackgroundImageFix" result="shape"/>
<feGaussianBlur stdDeviation="0.276773" result="effect1_foregroundBlur_652_4508"/>
</filter>
<filter id="filter6_f_652_4508" x="160.929" y="258.766" width="2.82512" height="0.91936" filterUnits="userSpaceOnUse" color-interpolation-filters="sRGB">
<feFlood flood-opacity="0" result="BackgroundImageFix"/>
<feBlend mode="normal" in="SourceGraphic" in2="BackgroundImageFix" result="shape"/>
<feGaussianBlur stdDeviation="0.14378" result="effect1_foregroundBlur_652_4508"/>
</filter>
<filter id="filter7_f_652_4508" x="349.653" y="242.441" width="6.86686" height="27.0739" filterUnits="userSpaceOnUse" color-interpolation-filters="sRGB">
<feFlood flood-opacity="0" result="BackgroundImageFix"/>
<feBlend mode="normal" in="SourceGraphic" in2="BackgroundImageFix" result="shape"/>
<feGaussianBlur stdDeviation="0.276773" result="effect1_foregroundBlur_652_4508"/>
</filter>
<filter id="filter8_f_652_4508" x="352.13" y="255.429" width="2.83489" height="1.03752" filterUnits="userSpaceOnUse" color-interpolation-filters="sRGB">
<feFlood flood-opacity="0" result="BackgroundImageFix"/>
<feBlend mode="normal" in="SourceGraphic" in2="BackgroundImageFix" result="shape"/>
<feGaussianBlur stdDeviation="0.14378" result="effect1_foregroundBlur_652_4508"/>
</filter>
<filter id="filter9_f_652_4508" x="181.57" y="201.929" width="27.0531" height="24.7181" filterUnits="userSpaceOnUse" color-interpolation-filters="sRGB">
<feFlood flood-opacity="0" result="BackgroundImageFix"/>
<feBlend mode="normal" in="SourceGraphic" in2="BackgroundImageFix" result="shape"/>
<feGaussianBlur stdDeviation="0.365328" result="effect1_foregroundBlur_652_4508"/>
</filter>
<filter id="filter10_f_652_4508" x="192.079" y="210.671" width="2.96421" height="3.21616" filterUnits="userSpaceOnUse" color-interpolation-filters="sRGB">
<feFlood flood-opacity="0" result="BackgroundImageFix"/>
<feBlend mode="normal" in="SourceGraphic" in2="BackgroundImageFix" result="shape"/>
<feGaussianBlur stdDeviation="0.189783" result="effect1_foregroundBlur_652_4508"/>
</filter>
<filter id="filter11_f_652_4508" x="300.476" y="202.159" width="26.5765" height="25.2323" filterUnits="userSpaceOnUse" color-interpolation-filters="sRGB">
<feFlood flood-opacity="0" result="BackgroundImageFix"/>
<feBlend mode="normal" in="SourceGraphic" in2="BackgroundImageFix" result="shape"/>
<feGaussianBlur stdDeviation="0.365327" result="effect1_foregroundBlur_652_4508"/>
</filter>
<filter id="filter12_f_652_4508" x="313.845" y="211.207" width="3.00132" height="3.18052" filterUnits="userSpaceOnUse" color-interpolation-filters="sRGB">
<feFlood flood-opacity="0" result="BackgroundImageFix"/>
<feBlend mode="normal" in="SourceGraphic" in2="BackgroundImageFix" result="shape"/>
<feGaussianBlur stdDeviation="0.189783" result="effect1_foregroundBlur_652_4508"/>
</filter>
<filter id="filter13_f_652_4508" x="228.783" y="177.891" width="52.0607" height="11.3165" filterUnits="userSpaceOnUse" color-interpolation-filters="sRGB">
<feFlood flood-opacity="0" result="BackgroundImageFix"/>
<feBlend mode="normal" in="SourceGraphic" in2="BackgroundImageFix" result="shape"/>
<feGaussianBlur stdDeviation="0.530301" result="effect1_foregroundBlur_652_4508"/>
</filter>
<filter id="filter14_f_652_4508" x="253.455" y="180.972" width="2.90788" height="5.31413" filterUnits="userSpaceOnUse" color-interpolation-filters="sRGB">
<feFlood flood-opacity="0" result="BackgroundImageFix"/>
<feBlend mode="normal" in="SourceGraphic" in2="BackgroundImageFix" result="shape"/>
<feGaussianBlur stdDeviation="0.376872" result="effect1_foregroundBlur_652_4508"/>
</filter>
<filter id="filter15_f_652_4508" x="292.184" y="288.014" width="18.3718" height="18.1574" filterUnits="userSpaceOnUse" color-interpolation-filters="sRGB">
<feFlood flood-opacity="0" result="BackgroundImageFix"/>
<feBlend mode="normal" in="SourceGraphic" in2="BackgroundImageFix" result="shape"/>
<feGaussianBlur stdDeviation="0.257495" result="effect1_foregroundBlur_652_4508"/>
</filter>
<filter id="filter16_f_652_4508" x="301.443" y="297.356" width="2.14444" height="2.21475" filterUnits="userSpaceOnUse" color-interpolation-filters="sRGB">
<feFlood flood-opacity="0" result="BackgroundImageFix"/>
<feBlend mode="normal" in="SourceGraphic" in2="BackgroundImageFix" result="shape"/>
<feGaussianBlur stdDeviation="0.133765" result="effect1_foregroundBlur_652_4508"/>
</filter>
<filter id="filter17_f_652_4508" x="208.085" y="291.789" width="19.4128" height="17.0349" filterUnits="userSpaceOnUse" color-interpolation-filters="sRGB">
<feFlood flood-opacity="0" result="BackgroundImageFix"/>
<feBlend mode="normal" in="SourceGraphic" in2="BackgroundImageFix" result="shape"/>
<feGaussianBlur stdDeviation="0.257494" result="effect1_foregroundBlur_652_4508"/>
</filter>
<filter id="filter18_f_652_4508" x="215.709" y="300.599" width="2.06045" height="2.2919" filterUnits="userSpaceOnUse" color-interpolation-filters="sRGB">
<feFlood flood-opacity="0" result="BackgroundImageFix"/>
<feBlend mode="normal" in="SourceGraphic" in2="BackgroundImageFix" result="shape"/>
<feGaussianBlur stdDeviation="0.133765" result="effect1_foregroundBlur_652_4508"/>
</filter>
<filter id="filter19_f_652_4508" x="241.797" y="315.856" width="36.6552" height="8.65769" filterUnits="userSpaceOnUse" color-interpolation-filters="sRGB">
<feFlood flood-opacity="0" result="BackgroundImageFix"/>
<feBlend mode="normal" in="SourceGraphic" in2="BackgroundImageFix" result="shape"/>
<feGaussianBlur stdDeviation="0.373773" result="effect1_foregroundBlur_652_4508"/>
</filter>
<filter id="filter20_f_652_4508" x="259.092" y="318.585" width="2.0469" height="3.77053" filterUnits="userSpaceOnUse" color-interpolation-filters="sRGB">
<feFlood flood-opacity="0" result="BackgroundImageFix"/>
<feBlend mode="normal" in="SourceGraphic" in2="BackgroundImageFix" result="shape"/>
<feGaussianBlur stdDeviation="0.265631" result="effect1_foregroundBlur_652_4508"/>
</filter>
<linearGradient id="paint0_linear_652_4508" x1="148.247" y1="257.033" x2="136.59" y2="257.426" gradientUnits="userSpaceOnUse">
<stop stop-color="#F2AA0E"/>
<stop offset="1" stop-color="#F2AA0E" stop-opacity="0"/>
</linearGradient>
<linearGradient id="paint1_linear_652_4508" x1="367.773" y1="254.864" x2="379.365" y2="256.149" gradientUnits="userSpaceOnUse">
<stop stop-color="#F2AA0E"/>
<stop offset="1" stop-color="#F2AA0E" stop-opacity="0"/>
</linearGradient>
<linearGradient id="paint2_linear_652_4508" x1="183.35" y1="196.419" x2="172.746" y2="185.258" gradientUnits="userSpaceOnUse">
<stop stop-color="#F2AA0E"/>
<stop offset="1" stop-color="#F2AA0E" stop-opacity="0"/>
</linearGradient>
<linearGradient id="paint3_linear_652_4508" x1="325.885" y1="197.152" x2="336.718" y2="186.213" gradientUnits="userSpaceOnUse">
<stop stop-color="#F2AA0E"/>
<stop offset="1" stop-color="#F2AA0E" stop-opacity="0"/>
</linearGradient>
<linearGradient id="paint4_linear_652_4508" x1="259.459" y1="156.645" x2="258.811" y2="134.307" gradientUnits="userSpaceOnUse">
<stop stop-color="#F2AA0E"/>
<stop offset="1" stop-color="#F2AA0E" stop-opacity="0"/>
</linearGradient>
<linearGradient id="paint5_linear_652_4508" x1="310.179" y1="309.328" x2="317.98" y2="316.87" gradientUnits="userSpaceOnUse">
<stop stop-color="#F2AA0E"/>
<stop offset="1" stop-color="#F2AA0E" stop-opacity="0"/>
</linearGradient>
<linearGradient id="paint6_linear_652_4508" x1="209.785" y1="313.076" x2="202.483" y2="321.103" gradientUnits="userSpaceOnUse">
<stop stop-color="#F2AA0E"/>
<stop offset="1" stop-color="#F2AA0E" stop-opacity="0"/>
</linearGradient>
<linearGradient id="paint7_linear_652_4508" x1="257.772" y1="339.615" x2="258.897" y2="355.325" gradientUnits="userSpaceOnUse">
<stop stop-color="#F2AA0E"/>
<stop offset="1" stop-color="#F2AA0E" stop-opacity="0"/>
</linearGradient>
<clipPath id="clip0_652_4508">
<rect width="500" height="500" fill="white"/>
</clipPath>
</defs>
</svg>
