<svg width="43" height="27" viewBox="0 0 43 27" fill="none"
  xmlns="http://www.w3.org/2000/svg">
  <rect x="0.700256" y="1.64557" width="8.31963" height="8.31963" fill="white" stroke="black" stroke-width="0.19348"/>
  <rect x="9.01861" y="1.64557" width="8.31963" height="8.31963" fill="white" stroke="black" stroke-width="0.19348"/>
  <rect x="17.3409" y="1.64557" width="8.31963" height="8.31963" fill="white" stroke="black" stroke-width="0.19348"/>
  <rect x="25.6573" y="1.64557" width="8.31963" height="8.31963" fill="white" stroke="black" stroke-width="0.19348"/>
  <rect x="33.9796" y="1.64557" width="8.31963" height="8.31963" fill="white" stroke="black" stroke-width="0.19348"/>
  <rect x="0.700256" y="9.9649" width="8.31963" height="8.31963" fill="white" stroke="black" stroke-width="0.19348"/>
  <rect x="9.01861" y="9.9649" width="8.31963" height="8.31963" fill="white" stroke="black" stroke-width="0.19348"/>
  <rect x="25.6573" y="9.9649" width="8.31963" height="8.31963" fill="white" stroke="black" stroke-width="0.19348"/>
  <rect x="33.9796" y="9.9649" width="8.31963" height="8.31963" fill="white" stroke="black" stroke-width="0.19348"/>
  <rect x="0.700256" y="18.2842" width="8.31963" height="8.31963" fill="white" stroke="black" stroke-width="0.19348"/>
  <rect x="9.01861" y="18.2842" width="8.31963" height="8.31963" fill="white" stroke="black" stroke-width="0.19348"/>
  <rect x="17.3409" y="18.2842" width="8.31963" height="8.31963" fill="white" stroke="black" stroke-width="0.19348"/>
  <rect x="25.6573" y="18.2842" width="8.31963" height="8.31963" fill="white" stroke="black" stroke-width="0.19348"/>
  <rect x="33.9796" y="18.2842" width="8.31963" height="8.31963" fill="white" stroke="black" stroke-width="0.19348"/>
  <rect x="17.3409" y="9.9649" width="8.31963" height="8.31963" fill="white" stroke="black" stroke-width="0.19348"/>
  <path d="M18.3453 5.87813V20.9805H15.1523V8.90892H15.0638L11.6053 11.0769V8.24524L15.344 5.87813H18.3453ZM22.0232 20.9805V5.87813H25.2162V18.3479H31.6907V20.9805H22.0232Z" fill="#718FC8"/>
</svg>
