<?xml version="1.0" encoding="utf-8"?>
<!-- Generator: Adobe Illustrator 26.0.1, SVG Export Plug-In . SVG Version: 6.00 Build 0)  -->
<svg version="1.1" id="Layer_1" xmlns="http://www.w3.org/2000/svg" xmlns:xlink="http://www.w3.org/1999/xlink" x="0px" y="0px"
	 viewBox="0 0 158 146" style="enable-background:new 0 0 158 146;" xml:space="preserve">
<style type="text/css">
	.st0{fill:#F7B634;stroke:#23469B;stroke-width:14.4;stroke-linejoin:round;}
	.st1{fill:#F3EFE5;fill-opacity:0.5;}
	.st2{fill:none;stroke:#122B67;stroke-width:10.8;stroke-linejoin:round;}
</style>
<g>
	<path class="st0" d="M119.7,55.6c0,8.2-2.5,16.7-5.9,24.5c-3.4,7.9-8,15.5-12.4,22.1c-4.4,6.6-8.8,12.3-12.2,16.4
		c-1.7,2-3,3.7-4,4.8c-0.5,0.6-0.9,1-1.1,1.3c-0.1,0.2-0.2,0.3-0.3,0.4l-0.1,0.1l0,0l0,0c-1.4,1.5-3.3,2.4-5.3,2.4
		c-2,0-4-0.9-5.3-2.4l0,0l0,0l-0.1-0.1c-0.1-0.1-0.2-0.2-0.3-0.4c-0.3-0.3-0.7-0.7-1.2-1.3c-1-1.1-2.4-2.8-4-4.8
		c-3.3-4.1-7.7-9.8-12.2-16.4c-4.4-6.6-8.9-14.2-12.4-22.1c-3.4-7.8-6-16.3-6-24.5c0-21.6,19.3-37.9,41.4-37.9
		C100.4,17.8,119.7,34,119.7,55.6z"/>
	<path class="st1" d="M69.1,32.5c-8.9,0-16.2,7-16.2,15.6c0,13.9,16.2,33,16.2,33s16.2-19.1,16.2-33C85.3,39.5,78,32.5,69.1,32.5z"
		/>
	<path class="st2" d="M124.9,52.8c0,9.1-2.8,18.8-6.8,27.8c-4,9.1-9.2,18-14.4,25.8c-5.2,7.8-10.3,14.5-14.2,19.3
		c-1.9,2.4-3.6,4.3-4.7,5.6c-0.6,0.7-1,1.2-1.3,1.5c-0.1,0.2-0.3,0.3-0.4,0.4l-0.1,0.1l0,0l0,0c-1,1.1-2.5,1.8-4,1.8s-3-0.6-4-1.8
		l0,0l0,0l-0.1-0.1c-0.1-0.1-0.2-0.2-0.4-0.4c-0.3-0.4-0.8-0.9-1.3-1.5c-1.1-1.3-2.8-3.2-4.7-5.6c-3.9-4.8-9-11.5-14.2-19.3
		c-5.2-7.8-10.4-16.7-14.4-25.8c-4-9.1-6.8-18.7-6.8-27.8c0-23.6,21.1-41.9,45.9-41.9S124.9,29.1,124.9,52.8z"/>
</g>
</svg>
