<svg width="43" height="27" fill="none" xmlns="http://www.w3.org/2000/svg"><path fill="#fff" stroke="#000" stroke-width=".214" d="M.107.107h8.545v8.925H.107zM8.665.107h8.545v8.925H8.665zM17.228.107h8.545v8.925h-8.545zM25.785.107h8.545v8.925h-8.545zM34.347.107h8.545v8.925h-8.545zM.107 9.039h8.545v8.925H.107zM8.665 9.039h8.545v8.925H8.665zM25.785 9.039h8.545v8.925h-8.545zM34.347 9.039h8.545v8.925h-8.545zM.107 17.969h8.545v8.925H.107zM8.665 17.969h8.545v8.925H8.665zM17.228 17.969h8.545v8.925h-8.545zM25.785 17.969h8.545v8.925h-8.545zM34.347 17.969h8.545v8.925h-8.545zM17.228 9.039h8.545v8.925h-8.545z"/><path d="M10.352 23v-2.542l5.939-5.498c.505-.49.929-.929 1.27-1.32a5.01 5.01 0 0 0 .79-1.149c.18-.38.27-.79.27-1.23 0-.488-.112-.91-.334-1.262a2.192 2.192 0 0 0-.913-.823 2.86 2.86 0 0 0-1.311-.293c-.51 0-.956.103-1.336.31-.38.205-.674.501-.88.887-.206.386-.31.845-.31 1.377H10.19c0-1.092.248-2.04.742-2.843.494-.804 1.186-1.426 2.077-1.866.89-.44 1.917-.66 3.08-.66 1.194 0 2.234.212 3.12.636.89.418 1.582.999 2.077 1.743.494.744.74 1.597.74 2.558 0 .63-.124 1.252-.374 1.865-.244.614-.681 1.296-1.311 2.045-.63.744-1.518 1.638-2.664 2.68l-2.436 2.387v.114h7.006V23H10.352zM24.9 23V6.316h3.528v13.776h7.152V23H24.9z" fill="url(#a)"/><defs><radialGradient id="a" cx="0" cy="0" r="1" gradientUnits="userSpaceOnUse" gradientTransform="matrix(-.93793 20.29684 -25.5825 -1.18219 24.043 12.484)"><stop stop-color="#49ADD8"/><stop offset="1" stop-color="#456BCD"/></radialGradient></defs></svg>