<svg width="43" height="27" fill="none" xmlns="http://www.w3.org/2000/svg"><path fill="#fff" stroke="#000" stroke-width=".214" d="M.107.107h8.545v8.925H.107zM8.665.107h8.545v8.925H8.665zM17.228.107h8.545v8.925h-8.545zM25.785.107h8.545v8.925h-8.545zM34.347.107h8.545v8.925h-8.545zM.107 9.038h8.545v8.925H.107zM8.665 9.038h8.545v8.925H8.665zM25.785 9.038h8.545v8.925h-8.545zM34.347 9.038h8.545v8.925h-8.545zM.107 17.968h8.545v8.925H.107zM8.665 17.968h8.545v8.925H8.665zM17.228 17.968h8.545v8.925h-8.545zM25.785 17.968h8.545v8.925h-8.545zM34.347 17.968h8.545v8.925h-8.545zM17.228 9.038h8.545v8.925h-8.545z"/><path d="M18.61 5.689v16.683h-3.527V9.037h-.098l-3.82 2.395V8.303l4.13-2.614h3.316zm4.064 16.683V5.69H26.2v13.775h7.152v2.908h-10.68z" fill="url(#a)"/><defs><radialGradient id="a" cx="0" cy="0" r="1" gradientUnits="userSpaceOnUse" gradientTransform="rotate(92.098 5.304 18.001) scale(22.9696)"><stop stop-color="#49ADD8"/><stop offset="1" stop-color="#456BCD"/></radialGradient></defs></svg>