<svg width="43" height="27" fill="none" xmlns="http://www.w3.org/2000/svg"><path fill="#fff" stroke="#000" stroke-width=".214" d="M.107.107h8.545v8.925H.107zM8.665.107h8.545v8.925H8.665z"/><path fill="url(#a)" stroke="#000" stroke-width=".214" d="M17.228.107h8.545v8.925h-8.545z"/><path fill="#fff" stroke="#000" stroke-width=".214" d="M25.785.107h8.545v8.925h-8.545zM34.347.107h8.545v8.925h-8.545zM.107 9.039h8.545v8.925H.107z"/><path fill="url(#b)" stroke="#000" stroke-width=".214" d="M8.665 9.039h8.545v8.925H8.665z"/><path fill="url(#c)" stroke="#000" stroke-width=".214" d="M25.785 9.039h8.545v8.925h-8.545z"/><path fill="#fff" stroke="#000" stroke-width=".214" d="M34.347 9.039h8.545v8.925h-8.545z"/><path fill="url(#d)" stroke="#000" stroke-width=".214" d="M.107 17.968h8.545v8.925H.107z"/><path fill="#fff" stroke="#000" stroke-width=".214" d="M8.665 17.968h8.545v8.925H8.665zM17.228 17.968h8.545v8.925h-8.545zM25.785 17.968h8.545v8.925h-8.545z"/><path fill="url(#e)" stroke="#000" stroke-width=".214" d="M34.347 17.968h8.545v8.925h-8.545z"/><path fill="#fff" stroke="#000" stroke-width=".214" d="M17.228 9.039h8.545v8.925h-8.545z"/><defs><radialGradient id="a" cx="0" cy="0" r="1" gradientUnits="userSpaceOnUse" gradientTransform="rotate(92.011 8.629 12.741) scale(8.07276 7.73861)"><stop stop-color="#49ADD8"/><stop offset="1" stop-color="#456BCD"/></radialGradient><radialGradient id="b" cx="0" cy="0" r="1" gradientUnits="userSpaceOnUse" gradientTransform="rotate(92.011 .036 13.073) scale(8.07276 7.73861)"><stop stop-color="#49ADD8"/><stop offset="1" stop-color="#456BCD"/></radialGradient><radialGradient id="c" cx="0" cy="0" r="1" gradientUnits="userSpaceOnUse" gradientTransform="rotate(92.011 8.595 21.338) scale(8.07276 7.73861)"><stop stop-color="#49ADD8"/><stop offset="1" stop-color="#456BCD"/></radialGradient><radialGradient id="d" cx="0" cy="0" r="1" gradientUnits="userSpaceOnUse" gradientTransform="rotate(92.011 -8.554 13.407) scale(8.07276 7.73861)"><stop stop-color="#49ADD8"/><stop offset="1" stop-color="#456BCD"/></radialGradient><radialGradient id="e" cx="0" cy="0" r="1" gradientUnits="userSpaceOnUse" gradientTransform="rotate(92.011 8.566 29.936) scale(8.07276 7.73861)"><stop stop-color="#49ADD8"/><stop offset="1" stop-color="#456BCD"/></radialGradient></defs></svg>