<svg width="107" height="67" viewBox="0 0 107 67" fill="none" xmlns="http://www.w3.org/2000/svg">
<rect x="0.181687" y="0.974656" width="21.3832" height="21.3832" fill="#0E1A65" stroke="black" stroke-width="0.363374"/>
<rect x="21.4317" y="0.974656" width="21.3832" height="21.3832" fill="#F8D606" stroke="black" stroke-width="0.363374"/>
<rect x="42.6895" y="0.974656" width="21.3832" height="21.3832" fill="#F8D606" stroke="black" stroke-width="0.363374"/>
<rect x="63.9336" y="0.974656" width="21.3832" height="21.3832" fill="#F8D606" stroke="black" stroke-width="0.363374"/>
<rect x="85.1915" y="0.974656" width="21.3832" height="21.3832" fill="#0E1A65" stroke="black" stroke-width="0.363374"/>
<rect x="0.181687" y="22.7212" width="21.3832" height="21.3832" fill="#0E1A65" stroke="black" stroke-width="0.363374"/>
<rect x="21.4317" y="22.7212" width="21.3832" height="21.3832" fill="#F8D606" stroke="black" stroke-width="0.363374"/>
<rect x="63.9336" y="22.7212" width="21.3832" height="21.3832" fill="#F8D606" stroke="black" stroke-width="0.363374"/>
<rect x="85.1915" y="22.7212" width="21.3832" height="21.3832" fill="#0E1A65" stroke="black" stroke-width="0.363374"/>
<rect x="0.181687" y="44.4678" width="21.3832" height="21.3832" fill="#0E1A65" stroke="black" stroke-width="0.363374"/>
<rect x="21.4317" y="44.4678" width="21.3832" height="21.3832" fill="#F8D606" stroke="black" stroke-width="0.363374"/>
<rect x="42.6895" y="44.4678" width="21.3832" height="21.3832" fill="#F8D606" stroke="black" stroke-width="0.363374"/>
<rect x="63.9336" y="44.4678" width="21.3832" height="21.3832" fill="#F8D606" stroke="black" stroke-width="0.363374"/>
<rect x="85.1915" y="44.4678" width="21.3832" height="21.3832" fill="#0E1A65" stroke="black" stroke-width="0.363374"/>
<rect x="42.6895" y="22.7212" width="21.3832" height="21.3832" fill="#0E1A65" stroke="black" stroke-width="0.363374"/>
</svg>
