<svg width="108" height="69" viewBox="0 0 108 69" fill="none" xmlns="http://www.w3.org/2000/svg">
<rect x="1.00981" y="3.80962" width="21.3832" height="21.3832" fill="#0E1A65" stroke="black" stroke-width="0.363374"/>
<rect x="22.2598" y="3.80962" width="21.3832" height="21.3832" fill="#0E1A65" stroke="black" stroke-width="0.363374"/>
<rect x="43.5176" y="3.80962" width="21.3832" height="21.3832" fill="#0E1A65" stroke="black" stroke-width="0.363374"/>
<rect x="64.7618" y="3.80962" width="21.3832" height="21.3832" fill="#0E1A65" stroke="black" stroke-width="0.363374"/>
<rect x="86.0196" y="3.80962" width="21.3832" height="21.3832" fill="#0E1A65" stroke="black" stroke-width="0.363374"/>
<rect x="1.00981" y="25.5567" width="21.3832" height="21.3832" fill="#0E1A65" stroke="black" stroke-width="0.363374"/>
<rect x="22.2598" y="25.5567" width="21.3832" height="21.3832" fill="#0E1A65" stroke="black" stroke-width="0.363374"/>
<rect x="64.7618" y="25.5567" width="21.3832" height="21.3832" fill="#0E1A65" stroke="black" stroke-width="0.363374"/>
<rect x="86.0196" y="25.5567" width="21.3832" height="21.3832" fill="#0E1A65" stroke="black" stroke-width="0.363374"/>
<rect x="1.00981" y="47.3028" width="21.3832" height="21.3832" fill="#0E1A65" stroke="black" stroke-width="0.363374"/>
<rect x="22.2598" y="47.3028" width="21.3832" height="21.3832" fill="#0E1A65" stroke="black" stroke-width="0.363374"/>
<rect x="43.5176" y="47.3028" width="21.3832" height="21.3832" fill="#0E1A65" stroke="black" stroke-width="0.363374"/>
<rect x="64.7618" y="47.3028" width="21.3832" height="21.3832" fill="#0E1A65" stroke="black" stroke-width="0.363374"/>
<rect x="86.0196" y="47.3028" width="21.3832" height="21.3832" fill="#0E1A65" stroke="black" stroke-width="0.363374"/>
<rect x="43.5176" y="25.5567" width="21.3832" height="21.3832" fill="#0E1A65" stroke="black" stroke-width="0.363374"/>
<path d="M45.0261 15.1168L45.0261 60L35.5367 60L35.5367 24.1241L35.2737 24.1241L24.9953 30.5673L24.9953 22.1517L36.1065 15.1168L45.0261 15.1168ZM55.9566 60L55.9566 15.1168L65.446 15.1168L65.446 52.1761L84.6879 52.1761L84.6879 60L55.9566 60Z" fill="#F8D606"/>
</svg>
