<svg width="107" height="66" viewBox="0 0 107 66" fill="none" xmlns="http://www.w3.org/2000/svg">
<rect x="0.423875" y="0.80864" width="21.3832" height="21.3832" fill="#F8D606" stroke="black" stroke-width="0.363374"/>
<rect x="21.6739" y="0.80864" width="21.3832" height="21.3832" fill="#F8D606" stroke="black" stroke-width="0.363374"/>
<rect x="42.9317" y="0.80864" width="21.3832" height="21.3832" fill="#F8D606" stroke="black" stroke-width="0.363374"/>
<rect x="64.1758" y="0.80864" width="21.3832" height="21.3832" fill="#F8D606" stroke="black" stroke-width="0.363374"/>
<rect x="85.4336" y="0.80864" width="21.3832" height="21.3832" fill="#F8D606" stroke="black" stroke-width="0.363374"/>
<rect x="0.423875" y="22.5557" width="21.3832" height="21.3832" fill="#F8D606" stroke="black" stroke-width="0.363374"/>
<rect x="21.6739" y="22.5557" width="21.3832" height="21.3832" fill="#0E1A65" stroke="black" stroke-width="0.363374"/>
<rect x="64.1758" y="22.5557" width="21.3832" height="21.3832" fill="#0E1A65" stroke="black" stroke-width="0.363374"/>
<rect x="85.4336" y="22.5557" width="21.3832" height="21.3832" fill="#F8D606" stroke="black" stroke-width="0.363374"/>
<rect x="0.423875" y="44.3018" width="21.3832" height="21.3832" fill="#F8D606" stroke="black" stroke-width="0.363374"/>
<rect x="21.6739" y="44.3018" width="21.3832" height="21.3832" fill="#F8D606" stroke="black" stroke-width="0.363374"/>
<rect x="42.9317" y="44.3018" width="21.3832" height="21.3832" fill="#F8D606" stroke="black" stroke-width="0.363374"/>
<rect x="64.1758" y="44.3018" width="21.3832" height="21.3832" fill="#F8D606" stroke="black" stroke-width="0.363374"/>
<rect x="85.4336" y="44.3018" width="21.3832" height="21.3832" fill="#F8D606" stroke="black" stroke-width="0.363374"/>
<rect x="42.9317" y="22.5557" width="21.3832" height="21.3832" fill="#0E1A65" stroke="black" stroke-width="0.363374"/>
</svg>
