<svg width="107" height="67" viewBox="0 0 107 67" fill="none" xmlns="http://www.w3.org/2000/svg">
<rect x="0.181687" y="-0.181687" width="21.3832" height="21.3832" transform="matrix(1 -6.40852e-09 -2.4899e-09 -1 0.242187 65.6689)" fill="#0E1A65" stroke="black" stroke-width="0.363374"/>
<rect x="0.181687" y="-0.181687" width="21.3832" height="21.3832" transform="matrix(1 -6.40852e-09 -2.4899e-09 -1 21.4922 65.6689)" fill="#0E1A65" stroke="black" stroke-width="0.363374"/>
<rect x="0.181687" y="-0.181687" width="21.3832" height="21.3832" transform="matrix(1 -6.40852e-09 -2.4899e-09 -1 42.75 65.6689)" fill="#F8D606" stroke="black" stroke-width="0.363374"/>
<rect x="0.181687" y="-0.181687" width="21.3832" height="21.3832" transform="matrix(1 -6.40852e-09 -2.4899e-09 -1 63.9941 65.6689)" fill="#0E1A65" stroke="black" stroke-width="0.363374"/>
<rect x="0.181687" y="-0.181687" width="21.3832" height="21.3832" transform="matrix(1 -6.40852e-09 -2.4899e-09 -1 85.252 65.6689)" fill="#0E1A65" stroke="black" stroke-width="0.363374"/>
<rect x="0.181687" y="-0.181687" width="21.3832" height="21.3832" transform="matrix(1 -6.40852e-09 -2.4899e-09 -1 0.242187 43.9223)" fill="#0E1A65" stroke="black" stroke-width="0.363374"/>
<rect x="0.181687" y="-0.181687" width="21.3832" height="21.3832" transform="matrix(1 -6.40852e-09 -2.4899e-09 -1 21.4922 43.9223)" fill="#F8D606" stroke="black" stroke-width="0.363374"/>
<rect x="0.181687" y="-0.181687" width="21.3832" height="21.3832" transform="matrix(1 -6.40852e-09 -2.4899e-09 -1 63.9941 43.9223)" fill="#F8D606" stroke="black" stroke-width="0.363374"/>
<rect x="0.181687" y="-0.181687" width="21.3832" height="21.3832" transform="matrix(1 -6.40852e-09 -2.4899e-09 -1 85.252 43.9223)" fill="#0E1A65" stroke="black" stroke-width="0.363374"/>
<rect x="0.181687" y="-0.181687" width="21.3832" height="21.3832" transform="matrix(1 -6.40852e-09 -2.4899e-09 -1 0.242187 22.1757)" fill="#F8D606" stroke="black" stroke-width="0.363374"/>
<rect x="0.181687" y="-0.181687" width="21.3832" height="21.3832" transform="matrix(1 -6.40852e-09 -2.4899e-09 -1 21.4922 22.1757)" fill="#0E1A65" stroke="black" stroke-width="0.363374"/>
<rect x="0.181687" y="-0.181687" width="21.3832" height="21.3832" transform="matrix(1 -6.40852e-09 -2.4899e-09 -1 42.75 22.1757)" fill="#0E1A65" stroke="black" stroke-width="0.363374"/>
<rect x="0.181687" y="-0.181687" width="21.3832" height="21.3832" transform="matrix(1 -6.40852e-09 -2.4899e-09 -1 63.9941 22.1757)" fill="#0E1A65" stroke="black" stroke-width="0.363374"/>
<rect x="0.181687" y="-0.181687" width="21.3832" height="21.3832" transform="matrix(1 -6.40852e-09 -2.4899e-09 -1 85.252 22.1757)" fill="#F8D606" stroke="black" stroke-width="0.363374"/>
<rect x="0.181687" y="-0.181687" width="21.3832" height="21.3832" transform="matrix(1 -6.40852e-09 -2.4899e-09 -1 42.75 43.9223)" fill="#0E1A65" stroke="black" stroke-width="0.363374"/>
</svg>
