<svg width="108" height="67" viewBox="0 0 108 67" fill="none" xmlns="http://www.w3.org/2000/svg">
<rect x="0.59575" y="0.974656" width="21.3832" height="21.3832" fill="#F8D606" stroke="black" stroke-width="0.363374"/>
<rect x="21.8457" y="0.974656" width="21.3832" height="21.3832" fill="#0E1A65" stroke="black" stroke-width="0.363374"/>
<rect x="43.1036" y="0.974656" width="21.3832" height="21.3832" fill="#F8D606" stroke="black" stroke-width="0.363374"/>
<rect x="64.3477" y="0.974656" width="21.3832" height="21.3832" fill="#0E1A65" stroke="black" stroke-width="0.363374"/>
<rect x="85.6075" y="0.974656" width="21.3832" height="21.3832" fill="#F8D606" stroke="black" stroke-width="0.363374"/>
<rect x="0.59575" y="22.7212" width="21.3832" height="21.3832" fill="#0E1A65" stroke="black" stroke-width="0.363374"/>
<rect x="21.8457" y="22.7212" width="21.3832" height="21.3832" fill="#F8D606" stroke="black" stroke-width="0.363374"/>
<rect x="64.3477" y="22.7212" width="21.3832" height="21.3832" fill="#F8D606" stroke="black" stroke-width="0.363374"/>
<rect x="85.6075" y="22.7212" width="21.3832" height="21.3832" fill="#0E1A65" stroke="black" stroke-width="0.363374"/>
<rect x="0.59575" y="44.4678" width="21.3832" height="21.3832" fill="#F8D606" stroke="black" stroke-width="0.363374"/>
<rect x="21.8457" y="44.4678" width="21.3832" height="21.3832" fill="#0E1A65" stroke="black" stroke-width="0.363374"/>
<rect x="43.1036" y="44.4678" width="21.3832" height="21.3832" fill="#F8D606" stroke="black" stroke-width="0.363374"/>
<rect x="64.3477" y="44.4678" width="21.3832" height="21.3832" fill="#0E1A65" stroke="black" stroke-width="0.363374"/>
<rect x="85.6075" y="44.4678" width="21.3832" height="21.3832" fill="#F8D606" stroke="black" stroke-width="0.363374"/>
<rect x="43.1036" y="22.7212" width="21.3832" height="21.3832" fill="#0E1A65" stroke="black" stroke-width="0.363374"/>
</svg>
