<svg width="108" height="67" viewBox="0 0 108 67" fill="none" xmlns="http://www.w3.org/2000/svg">
<rect x="0.181687" y="-0.181687" width="21.3832" height="21.3832" transform="matrix(1 -6.40852e-09 -2.4899e-09 -1 0.828125 65.6689)" fill="#0E1A65" stroke="black" stroke-width="0.363374"/>
<rect x="0.181687" y="-0.181687" width="21.3832" height="21.3832" transform="matrix(1 -6.40852e-09 -2.4899e-09 -1 22.0781 65.6689)" fill="#0E1A65" stroke="black" stroke-width="0.363374"/>
<rect x="0.181687" y="-0.181687" width="21.3832" height="21.3832" transform="matrix(1 -6.40852e-09 -2.4899e-09 -1 43.3359 65.6689)" fill="#F8D606" stroke="black" stroke-width="0.363374"/>
<rect x="0.181687" y="-0.181687" width="21.3832" height="21.3832" transform="matrix(1 -6.40852e-09 -2.4899e-09 -1 64.5801 65.6689)" fill="#0E1A65" stroke="black" stroke-width="0.363374"/>
<rect x="0.181687" y="-0.181687" width="21.3832" height="21.3832" transform="matrix(1 -6.40852e-09 -2.4899e-09 -1 85.8379 65.6689)" fill="#0E1A65" stroke="black" stroke-width="0.363374"/>
<rect x="0.181687" y="-0.181687" width="21.3832" height="21.3832" transform="matrix(1 -6.40852e-09 -2.4899e-09 -1 0.828125 43.9223)" fill="#0E1A65" stroke="black" stroke-width="0.363374"/>
<rect x="0.181687" y="-0.181687" width="21.3832" height="21.3832" transform="matrix(1 -6.40852e-09 -2.4899e-09 -1 22.0781 43.9223)" fill="#F8D606" stroke="black" stroke-width="0.363374"/>
<rect x="0.181687" y="-0.181687" width="21.3832" height="21.3832" transform="matrix(1 -6.40852e-09 -2.4899e-09 -1 64.5801 43.9223)" fill="#F8D606" stroke="black" stroke-width="0.363374"/>
<rect x="0.181687" y="-0.181687" width="21.3832" height="21.3832" transform="matrix(1 -6.40852e-09 -2.4899e-09 -1 85.8379 43.9223)" fill="#0E1A65" stroke="black" stroke-width="0.363374"/>
<rect x="0.181687" y="-0.181687" width="21.3832" height="21.3832" transform="matrix(1 -6.40852e-09 -2.4899e-09 -1 0.828125 22.1757)" fill="#F8D606" stroke="black" stroke-width="0.363374"/>
<rect x="0.181687" y="-0.181687" width="21.3832" height="21.3832" transform="matrix(1 -6.40852e-09 -2.4899e-09 -1 22.0781 22.1757)" fill="#F8D606" stroke="black" stroke-width="0.363374"/>
<rect x="0.181687" y="-0.181687" width="21.3832" height="21.3832" transform="matrix(1 -6.40852e-09 -2.4899e-09 -1 43.3359 22.1757)" fill="#F8D606" stroke="black" stroke-width="0.363374"/>
<rect x="0.181687" y="-0.181687" width="21.3832" height="21.3832" transform="matrix(1 -6.40852e-09 -2.4899e-09 -1 64.5801 22.1757)" fill="#F8D606" stroke="black" stroke-width="0.363374"/>
<rect x="0.181687" y="-0.181687" width="21.3832" height="21.3832" transform="matrix(1 -6.40852e-09 -2.4899e-09 -1 85.8379 22.1757)" fill="#F8D606" stroke="black" stroke-width="0.363374"/>
<rect x="0.181687" y="-0.181687" width="21.3832" height="21.3832" transform="matrix(1 -6.40852e-09 -2.4899e-09 -1 43.3359 43.9223)" fill="#0E1A65" stroke="black" stroke-width="0.363374"/>
</svg>
