<svg width="108" height="69" viewBox="0 0 108 69" fill="none" xmlns="http://www.w3.org/2000/svg">
<rect x="0.742234" y="3.80962" width="21.3832" height="21.3832" fill="#0E1A65" stroke="black" stroke-width="0.363374"/>
<rect x="21.9922" y="3.80962" width="21.3832" height="21.3832" fill="#0E1A65" stroke="black" stroke-width="0.363374"/>
<rect x="43.25" y="3.80962" width="21.3832" height="21.3832" fill="#0E1A65" stroke="black" stroke-width="0.363374"/>
<rect x="64.4942" y="3.80962" width="21.3832" height="21.3832" fill="#0E1A65" stroke="black" stroke-width="0.363374"/>
<rect x="85.752" y="3.80962" width="21.3832" height="21.3832" fill="#0E1A65" stroke="black" stroke-width="0.363374"/>
<rect x="0.742234" y="25.5567" width="21.3832" height="21.3832" fill="#0E1A65" stroke="black" stroke-width="0.363374"/>
<rect x="21.9922" y="25.5567" width="21.3832" height="21.3832" fill="#0E1A65" stroke="black" stroke-width="0.363374"/>
<rect x="64.4942" y="25.5567" width="21.3832" height="21.3832" fill="#0E1A65" stroke="black" stroke-width="0.363374"/>
<rect x="85.752" y="25.5567" width="21.3832" height="21.3832" fill="#0E1A65" stroke="black" stroke-width="0.363374"/>
<rect x="0.742234" y="47.3028" width="21.3832" height="21.3832" fill="#0E1A65" stroke="black" stroke-width="0.363374"/>
<rect x="21.9922" y="47.3028" width="21.3832" height="21.3832" fill="#0E1A65" stroke="black" stroke-width="0.363374"/>
<rect x="43.25" y="47.3028" width="21.3832" height="21.3832" fill="#0E1A65" stroke="black" stroke-width="0.363374"/>
<rect x="64.4942" y="47.3028" width="21.3832" height="21.3832" fill="#0E1A65" stroke="black" stroke-width="0.363374"/>
<rect x="85.752" y="47.3028" width="21.3832" height="21.3832" fill="#0E1A65" stroke="black" stroke-width="0.363374"/>
<rect x="43.25" y="25.5567" width="21.3832" height="21.3832" fill="#0E1A65" stroke="black" stroke-width="0.363374"/>
<path d="M20.8924 60L20.8924 53.1623L36.8689 38.3693C38.2277 37.0543 39.3673 35.8709 40.2878 34.8189C41.2228 33.767 41.9314 32.737 42.4136 31.7288C42.8957 30.7061 43.1368 29.603 43.1368 28.4196C43.1368 27.1046 42.8373 25.9723 42.2383 25.0227C41.6392 24.0584 40.8211 23.3205 39.7837 22.8092C38.7464 22.2832 37.5702 22.0202 36.2553 22.0202C34.8819 22.0202 33.6839 22.2978 32.6611 22.853C31.6384 23.4082 30.8494 24.2045 30.2942 25.2418C29.7391 26.2792 29.4615 27.5137 29.4615 28.9456L20.4541 28.9456C20.4541 26.0089 21.1189 23.4593 22.4485 21.297C23.778 19.1347 25.6408 17.4618 28.0369 16.2783C30.433 15.0949 33.1944 14.5032 36.321 14.5032C39.5353 14.5032 42.3332 15.073 44.7147 16.2126C47.1108 17.3376 48.9737 18.9009 50.3032 20.9025C51.6328 22.9041 52.2975 25.198 52.2975 27.784C52.2975 29.4788 51.9615 31.1517 51.2894 32.8027C50.632 34.4537 49.4558 36.2873 47.761 38.3035C46.0662 40.3052 43.6774 42.7086 40.5946 45.5138L34.0418 51.935L34.0418 52.2419L52.8893 52.2419L52.8893 60L20.8924 60ZM60.0283 60L60.0283 15.1168L69.5177 15.1168L69.5177 52.1761L88.7597 52.1761L88.7597 60L60.0283 60Z" fill="#F8D606"/>
</svg>
