<svg width="108" height="66" viewBox="0 0 108 66" fill="none" xmlns="http://www.w3.org/2000/svg">
<rect x="1.00981" y="0.910203" width="21.3832" height="21.3832" fill="#0E1A65" stroke="black" stroke-width="0.363374"/>
<rect x="22.2598" y="0.910203" width="21.3832" height="21.3832" fill="#0E1A65" stroke="black" stroke-width="0.363374"/>
<rect x="43.5176" y="0.910203" width="21.3832" height="21.3832" fill="#F8D606" stroke="black" stroke-width="0.363374"/>
<rect x="64.7618" y="0.910203" width="21.3832" height="21.3832" fill="#0E1A65" stroke="black" stroke-width="0.363374"/>
<rect x="86.0196" y="0.910203" width="21.3832" height="21.3832" fill="#0E1A65" stroke="black" stroke-width="0.363374"/>
<rect x="1.00981" y="22.6568" width="21.3832" height="21.3832" fill="#0E1A65" stroke="black" stroke-width="0.363374"/>
<rect x="22.2598" y="22.6568" width="21.3832" height="21.3832" fill="#F8D606" stroke="black" stroke-width="0.363374"/>
<rect x="64.7618" y="22.6568" width="21.3832" height="21.3832" fill="#F8D606" stroke="black" stroke-width="0.363374"/>
<rect x="86.0196" y="22.6568" width="21.3832" height="21.3832" fill="#0E1A65" stroke="black" stroke-width="0.363374"/>
<rect x="1.00981" y="44.4034" width="21.3832" height="21.3832" fill="#F8D606" stroke="black" stroke-width="0.363374"/>
<rect x="22.2598" y="44.4034" width="21.3832" height="21.3832" fill="#F8D606" stroke="black" stroke-width="0.363374"/>
<rect x="43.5176" y="44.4034" width="21.3832" height="21.3832" fill="#F8D606" stroke="black" stroke-width="0.363374"/>
<rect x="64.7618" y="44.4034" width="21.3832" height="21.3832" fill="#F8D606" stroke="black" stroke-width="0.363374"/>
<rect x="86.0196" y="44.4034" width="21.3832" height="21.3832" fill="#F8D606" stroke="black" stroke-width="0.363374"/>
<rect x="43.5176" y="22.6568" width="21.3832" height="21.3832" fill="#0E1A65" stroke="black" stroke-width="0.363374"/>
</svg>
